<?xml version="1.0" encoding="UTF-8"?>
<svg width="18" height="23" fill="none" version="1.1" viewBox="0 0 18 23" xmlns="http://www.w3.org/2000/svg" xmlns:xlink="http://www.w3.org/1999/xlink"><g><path d="m1.627 0c-0.8953 0-1.627 0.7959-1.627 1.7656v7.0273 1.207 11.373c0 0.89517 0.73346 1.627 1.627 1.627h14.746c0.89527 0 1.625-0.73343 1.625-1.627v-11.373h0.001953v-3.4062l-6.0098-6.5938h-10.363z" fill="#7d7d7d"/><path d="m11.989 0-0.61624 5.6092c0 0.8952 0.73258 1.6261 1.6261 1.6261l4.9998-1.1588z" fill="#000"/><path d="m12.004 0v4.4418c0 0.8952 0.73258 1.6261 1.6261 1.6261h4.3681z" fill="#fff"/><path d="m2 3v2.8066h0.51367v-0.97461h0.49609c0.32064 0 0.56603-0.076211 0.73438-0.22852 0.16834-0.15232 0.25195-0.38462 0.25195-0.69727 0-0.60389-0.33269-0.90625-0.99805-0.90625h-0.99805zm2.3867 0v2.8066h1.0508c0.26721 0 0.50447-0.057695 0.71289-0.16992 0.21111-0.11222 0.37658-0.27328 0.49414-0.48438 0.11757-0.2111 0.17578-0.46141 0.17578-0.75 0-0.28859-0.05821-0.53693-0.17578-0.74805-0.11756-0.2111-0.28303-0.37411-0.49414-0.48633-0.20842-0.11224-0.44568-0.16797-0.71289-0.16797h-1.0508zm2.8867 0v2.8066h0.51172v-1.2148h0.9375v-0.49805h-0.9375v-0.59766h1.2148v-0.49609h-1.7266zm-4.7598 0.42969h0.42383c0.18171 0 0.31612 0.038986 0.4043 0.11914 0.088181 0.077483 0.13281 0.19958 0.13281 0.36523 0 0.16567-0.044632 0.28899-0.13281 0.36914-0.085509 0.080166-0.21622 0.11914-0.39258 0.11914h-0.43555v-0.97266zm2.3867 0.027344h0.53711c0.26721 0 0.47044 0.083607 0.60938 0.25195 0.14163 0.16566 0.21289 0.39676 0.21289 0.69336 0 0.29659-0.071262 0.52892-0.21289 0.69727-0.13893 0.16566-0.34216 0.25-0.60938 0.25h-0.53711v-1.8926zm-4.9004 5.2441v0.51367h18v-0.51367h-18zm2 2.2988v3h8v-3h-8zm0 4v1h14v-1h-14zm0 2v1h8v-1h-8zm9 0v3h5v-3h-0.5-4.5zm1 1h3v1h-3v-1zm-10 1v1h8v-1h-8z" fill="#fff"/></g></svg>
