<?xml version="1.0" encoding="UTF-8"?>
<svg width="90" height="28" version="1.1" viewBox="0 0 90 28" xmlns="http://www.w3.org/2000/svg"><path d="m86.527 28h-83.054c-1.9236 0-3.4732-1.6032-3.4732-3.5706v-20.877c0-1.9675 1.5496-3.5524 3.4732-3.5524h83.054c1.9236 0 3.4732 1.5849 3.4732 3.5524v20.877c0 1.9675-1.5496 3.5706-3.4732 3.5706z" fill="#d4d4d4"/><path d="m15.297 4.8262c-0.8904 0.03562-1.9585 0.58803-2.5996 1.3359-0.552 0.64107-1.0859 1.6915-0.94336 2.7422 0 0.07123 0.0716 0.12305 0.125 0.12305h0.17774c0.8726 0 1.816-0.48015 2.457-1.2637 0.6767-0.81914 1.0151-1.8687 0.9082-2.8125 0-0.07123-0.0538-0.125-0.125-0.125zm-0.28516 4.0781c-0.7479 0-1.4419 0.28437-2.0117 0.49805-0.4096 0.17808-0.74702 0.32031-0.97852 0.32031-0.2671 0-0.60635-0.1427-0.99805-0.28516-0.5164-0.21369-1.1226-0.46289-1.7637-0.46289h-0.052734c-1.4602 0.03561-2.8495 0.87346-3.6152 2.209-1.4602 2.5287-0.53453 6.3742 1.0859 8.707 0.80134 1.1574 1.6203 2.209 2.7422 2.209h0.072266c0.51637-0.0178 0.90747-0.17954 1.2637-0.33984 0.4095-0.178 0.83697-0.35547 1.5137-0.35547 0.6411 0 1.034 0.17769 1.4258 0.33789 0.3917 0.1603 0.78339 0.33811 1.3711 0.32031 1.2643-0.0178 2.0284-1.1571 2.7051-2.1543 0.7123-1.0329 1.0687-2.0478 1.1934-2.4395v-0.017578c0.0178-0.0712-0.016813-0.14213-0.070313-0.17773h-0.017578c-0.2136-0.0891-2.1736-0.9619-2.1914-3.3125-0.0178-1.9054 1.4609-2.9196 1.7637-3.0977h0.017578c0.0356-0.0178 0.052734-0.054243 0.052734-0.089843 0-0.035601 2.22e-4 -0.071822-0.017578-0.10742-1.015-1.4958-2.5819-1.7085-3.2051-1.7441-0.0891-0.0178-0.17826-0.017578-0.28516-0.017578zm35.395 1.6309c-0.7161 0-1.2969 0.18494-1.7461 0.55274-0.446 0.3646-0.66992 0.82682-0.66992 1.3867 0 0.4948 0.18228 0.9115 0.54688 1.25 0.3678 0.3353 0.95381 0.61851 1.7578 0.84961 0.6413 0.1856 1.084 0.37441 1.3281 0.56641 0.2442 0.1888 0.36719 0.45639 0.36719 0.80469 0 0.3483-0.13288 0.62437-0.39648 0.82617-0.2637 0.2018-0.64202 0.30274-1.1367 0.30274-0.5306 0-0.95629-0.12369-1.2754-0.37109-0.3157-0.2506-0.47461-0.59178-0.47461-1.0215h-0.94141c0 0.4134 0.114 0.78388 0.3418 1.1094 0.2311 0.3255 0.55922 0.58268 0.98242 0.77148 0.4231 0.1856 0.87889 0.27734 1.3672 0.27734 0.7519 0 1.3516-0.17258 1.8008-0.51758 0.4492-0.3484 0.67383-0.81052 0.67383-1.3867 0-0.3613-0.081341-0.67451-0.24414-0.94141-0.1595-0.267-0.40689-0.50062-0.74219-0.69922-0.332-0.2018-0.79432-0.38478-1.3867-0.55078-0.5892-0.1661-1.0085-0.34838-1.2559-0.54688-0.2441-0.2018-0.36523-0.44858-0.36523-0.73828 0-0.3614 0.12767-0.64185 0.38477-0.84375 0.2605-0.205 0.62178-0.30859 1.084-0.30859 0.4981 0 0.8847 0.12369 1.1582 0.37109 0.2734 0.2442 0.41016 0.58202 0.41016 1.0117h0.94336c0-0.3939-0.10676-0.75784-0.31836-1.0898-0.2083-0.332-0.50447-0.59245-0.88867-0.78125-0.3808-0.1888-0.81639-0.2832-1.3047-0.2832zm-20.414 0.097656-2.7148 7.1094h0.9668l0.66992-1.8555h2.9766l0.67969 1.8555h0.96094l-2.7188-7.1094h-0.82031zm24.326 0.54688v1.2793h-0.96289v0.69922h0.96289v3.2754c0 0.4492 0.10349 0.79692 0.30859 1.041 0.2051 0.2442 0.50841 0.36524 0.91211 0.36524 0.2246 0 0.45576-0.032556 0.69336-0.097656v-0.73242c-0.1823 0.039-0.32549 0.058593-0.42969 0.058593-0.2116 0-0.36132-0.05205-0.44922-0.15625-0.0879-0.1074-0.13086-0.26692-0.13086-0.47852v-3.2754h0.98438v-0.69922h-0.98438v-1.2793h-0.9043zm-23.916 0.61133 1.2109 3.3242h-2.416l1.2051-3.3242zm6.3477 0.57031c-0.6543 0-1.1654 0.22789-1.5332 0.68359l-0.042969-0.58594h-0.82617v7.3145h0.9043v-2.543c0.3678 0.4069 0.87052 0.60938 1.5117 0.60938 0.6283 0 1.1283-0.24473 1.4961-0.73633 0.3678-0.4915 0.55078-1.1394 0.55078-1.9434v-0.083984c0-0.8529-0.18554-1.5176-0.55664-1.9961-0.3678-0.4785-0.86911-0.71875-1.5039-0.71875zm5.6152 0c-0.6543 0-1.1653 0.22789-1.5332 0.68359l-0.042969-0.58594h-0.82617v7.3145h0.90234v-2.543c0.3678 0.4069 0.87432 0.60938 1.5156 0.60938 0.6282 0 1.1244-0.24473 1.4922-0.73633 0.3679-0.4915 0.55273-1.1394 0.55273-1.9434v-0.083984c0-0.8529-0.18554-1.5176-0.55664-1.9961-0.3678-0.4785-0.86911-0.71875-1.5039-0.71875zm16.963 0c-0.4655 0-0.88149 0.11329-1.2461 0.33789-0.3613 0.2246-0.64256 0.54363-0.84766 0.95703-0.2018 0.4134-0.30273 0.87898-0.30273 1.3965v0.0625c0 0.8203 0.21941 1.4804 0.66211 1.9785 0.446 0.498 1.0279 0.74609 1.7441 0.74609 0.4753 0 0.89516-0.1139 1.2598-0.3418 0.3678-0.2278 0.6504-0.54427 0.8457-0.95117 0.1986-0.4102 0.29688-0.87242 0.29688-1.3867v-0.064453c0-0.8268-0.22197-1.4883-0.66797-1.9863-0.4427-0.4981-1.0247-0.74805-1.7441-0.74805zm5.6992 0c-0.5437 0-0.96552 0.23698-1.2617 0.70898l-0.013672-0.61133h-0.87891v5.2832h0.9043v-3.75c0.2116-0.5046 0.61268-0.75586 1.2051-0.75586 0.1595 0 0.30851 0.010403 0.44531 0.033203v-0.83984c-0.0912-0.0456-0.22469-0.06836-0.40039-0.06836zm3.2168 0c-0.4199 0-0.81058 0.11716-1.1719 0.35156-0.3581 0.2311-0.63804 0.5534-0.83984 0.9668-0.1985 0.4101-0.29688 0.87834-0.29688 1.4023v0.16602c0 0.7877 0.22463 1.4167 0.67383 1.8887 0.4492 0.4688 1.03 0.70312 1.7461 0.70312 0.8855 0 1.5495-0.33913 1.9922-1.0195l-0.55078-0.42969c-0.166 0.2149-0.36063 0.38738-0.58203 0.51758-0.2213 0.1302-0.48959 0.19531-0.80859 0.19531-0.4492 0-0.82028-0.15952-1.1133-0.47852-0.2897-0.3223-0.44208-0.74482-0.45508-1.2656h3.5801v-0.375c0-0.8431-0.19137-1.4909-0.57227-1.9434-0.3809-0.4524-0.91466-0.67969-1.6016-0.67969zm-8.916 0.74219c0.4558 0 0.82025 0.18167 1.0938 0.54297 0.2767 0.3581 0.41406 0.82685 0.41406 1.4062 0 0.6478-0.1341 1.1524-0.4043 1.5137-0.2701 0.3581-0.63475 0.53711-1.0938 0.53711-0.4557 0-0.82025-0.1784-1.0938-0.5332-0.2701-0.3548-0.4043-0.82426-0.4043-1.4102 0-0.6608 0.1348-1.1686 0.4082-1.5234 0.2735-0.3548 0.63418-0.5332 1.0801-0.5332zm8.916 0c0.3776 0 0.67704 0.12696 0.89844 0.38086 0.2213 0.2506 0.34499 0.60545 0.37109 1.0645v0.06836h-2.6465c0.058599-0.4785 0.21158-0.84958 0.45898-1.1133 0.2474-0.2669 0.55347-0.40039 0.91797-0.40039zm-31.764 0.02539c0.4428 0 0.79298 0.17248 1.0469 0.51758 0.2539 0.345 0.37891 0.81446 0.37891 1.4102 0 0.6771-0.12767 1.1882-0.38477 1.5332-0.2539 0.3418-0.59825 0.51367-1.0312 0.51367-0.5566 0-0.96808-0.24096-1.2383-0.72266v-2.5254c0.2734-0.4851 0.68172-0.72656 1.2285-0.72656zm5.6172 0c0.4427 0 0.78907 0.17248 1.043 0.51758 0.2539 0.345 0.38281 0.81446 0.38281 1.4102 0 0.6771-0.12952 1.1882-0.38672 1.5332-0.2539 0.3418-0.59825 0.51367-1.0312 0.51367-0.5566 0-0.97004-0.24096-1.2402-0.72266v-2.5254c0.2734-0.4851 0.68552-0.72656 1.2324-0.72656z" fill="#646464"/></svg>
