<?xml version="1.0" encoding="UTF-8"?>
<svg width="90" height="28" version="1.1" viewBox="0 0 90 28" xmlns="http://www.w3.org/2000/svg"><path d="m86.527 28h-83.054c-1.9236 0-3.4732-1.5849-3.4732-3.5523v-20.895c0-1.9675 1.5496-3.5524 3.4732-3.5524h83.054c1.9236 0 3.4731 1.5849 3.4731 3.5524v20.877c0.0178 1.9675-1.5495 3.5706-3.4731 3.5706z" fill="#fff"/><path d="m5.6094 4.6113 9.332 9.0293 2.7051-2.6172-3.7754-2.1738-8.2617-4.2383zm-0.55273 0.35742-0.017578 18.234 9.4375-9.1172-9.4199-9.1172zm47.484 5.5117v7.5h0.9043v-7.5h-0.9043zm16.523 0v7.5h0.90234v-7.5h-0.90234zm-37.67 0.29297c-0.905 0-1.61 0.29361-2.1113 0.88281-0.498 0.5892-0.74609 1.4192-0.74609 2.4902v0.62109c0.0066 0.6608 0.1309 1.2409 0.375 1.7422 0.2474 0.5013 0.59572 0.88861 1.0449 1.1621 0.4493 0.2701 0.96357 0.40625 1.543 0.40625 0.5729 0 1.0742-0.084606 1.5039-0.25391 0.433-0.1725 0.77082-0.43234 1.0117-0.77734v-2.6074h-2.5781v0.76172h1.6445v1.5977c-0.1725 0.1856-0.3906 0.31643-0.6543 0.39453-0.2636 0.0782-0.57028 0.11719-0.92188 0.11719-0.6217 0-1.1159-0.23432-1.4805-0.70312-0.3646-0.472-0.54688-1.1068-0.54688-1.9043v-0.58008c0.0033-0.8366 0.16598-1.4747 0.48828-1.9141 0.3255-0.4427 0.80334-0.66406 1.4316-0.66406 0.944 0 1.5039 0.46936 1.6797 1.4102h0.9375c-0.1009-0.6966-0.37758-1.2337-0.83008-1.6113-0.4525-0.3808-1.0488-0.57031-1.791-0.57031zm31.426 0.097656v7.1094h0.9375v-2.7832h1.6738c0.804 0 1.4219-0.18554 1.8516-0.55664 0.4329-0.3743 0.64844-0.90756 0.64844-1.5977 0-0.6543-0.22136-1.1791-0.66406-1.5762-0.4394-0.3971-1.0482-0.5957-1.8262-0.5957h-2.6211zm-44.604 0.49023-2.8145 2.7246 2.582 2.4922 3.668-2.1191c0.1959-0.1247 0.32031-0.31928 0.32031-0.55078 0-0.2493-0.12441-0.46351-0.32031-0.57031l-3.4355-1.9766zm45.541 0.28125h1.7383c0.4654 0.0098 0.83076 0.14063 1.0977 0.39453s0.40039 0.59242 0.40039 1.0156c0 0.446-0.13349 0.78779-0.40039 1.0254-0.2669 0.2344-0.65104 0.35156-1.1523 0.35156h-1.6836v-2.7871zm-26.158 0.95703c-0.4654 0-0.88149 0.11134-1.2461 0.33594-0.3613 0.2246-0.64451 0.54363-0.84961 0.95703-0.2018 0.4134-0.30078 0.87888-0.30078 1.3965v0.064454c0 0.8203 0.21941 1.4785 0.66211 1.9766 0.446 0.498 1.028 0.74805 1.7441 0.74805 0.4753 0 0.89517-0.1139 1.2598-0.3418 0.3678-0.2278 0.64845-0.54622 0.84375-0.95312 0.1986-0.4102 0.29883-0.87242 0.29883-1.3867v-0.0625c0-0.8268-0.22392-1.4903-0.66992-1.9883-0.4427-0.4981-1.0228-0.74609-1.7422-0.74609zm5.7031 0c-0.4655 0-0.87964 0.11134-1.2441 0.33594-0.3614 0.2246-0.64646 0.54363-0.85156 0.95703-0.2018 0.4134-0.30273 0.87888-0.30273 1.3965v0.064454c0 0.8203 0.22332 1.4785 0.66602 1.9766 0.4459 0.498 1.0261 0.74805 1.7422 0.74805 0.4753 0 0.89517-0.1139 1.2598-0.3418 0.3678-0.2278 0.64845-0.54622 0.84375-0.95312 0.1986-0.4102 0.29883-0.87242 0.29883-1.3867v-0.0625c0-0.8268-0.22392-1.4903-0.66992-1.9883-0.4427-0.4981-1.0228-0.74609-1.7422-0.74609zm5.4141 0c-0.6282 0-1.1328 0.24422-1.5137 0.73242-0.3808 0.4851-0.57031 1.1394-0.57031 1.9629 0 0.8594 0.18951 1.5371 0.57031 2.0352 0.3842 0.498 0.88551 0.74805 1.5039 0.74805 0.625 0 1.1192-0.2083 1.4805-0.625v0.45312c0 0.4493-0.12369 0.79752-0.37109 1.0449-0.2441 0.2474-0.58599 0.37109-1.0254 0.37109-0.5599 0-1.0326-0.2383-1.4199-0.7168l-0.4707 0.54102c0.1921 0.2832 0.47134 0.50722 0.83594 0.66992 0.3645 0.1628 0.73639 0.24414 1.1172 0.24414 0.6836 0 1.2291-0.1979 1.6328-0.5918 0.4069-0.3938 0.60938-0.93163 0.60938-1.6152v-5.1562h-0.82617l-0.042969 0.58594c-0.3613-0.4557-0.86526-0.68359-1.5098-0.68359zm8.2578 0c-0.4199 0-0.81058 0.11716-1.1719 0.35156-0.3581 0.2311-0.63794 0.5534-0.83984 0.9668-0.1985 0.4101-0.29688 0.87639-0.29688 1.4004v0.16602c0 0.7877 0.22268 1.4186 0.67188 1.8906 0.4492 0.4688 1.0338 0.70312 1.75 0.70312 0.8854 0 1.5475-0.34108 1.9902-1.0215l-0.55078-0.42969c-0.166 0.2149-0.36063 0.38738-0.58203 0.51758-0.2213 0.1302-0.48959 0.19531-0.80859 0.19531-0.4492 0-0.82028-0.15952-1.1133-0.47852-0.2897-0.3222-0.44208-0.74287-0.45508-1.2637h3.5801v-0.37695c0-0.8431-0.19137-1.4909-0.57227-1.9434-0.3809-0.4524-0.91466-0.67774-1.6016-0.67774zm16.5 0c-0.3841 0-0.73825 0.071544-1.0605 0.21484-0.319 0.1432-0.57292 0.33854-0.76172 0.58594-0.1856 0.2441-0.27734 0.49802-0.27734 0.76172h0.9082c0-0.2311 0.10807-0.429 0.32617-0.5918 0.2181-0.1628 0.48825-0.24414 0.81055-0.24414 0.3678 0 0.64518 0.094403 0.83398 0.2832 0.1888 0.1855 0.2832 0.43625 0.2832 0.75195v0.41602h-0.87891c-0.7584 0-1.3476 0.15308-1.7676 0.45898-0.4166 0.3028-0.625 0.7292-0.625 1.2793 0 0.4525 0.168 0.82685 0.5 1.123 0.3353 0.293 0.7623 0.43945 1.2832 0.43945 0.5826 0 1.084-0.2181 1.5039-0.6543 0.0325 0.267 0.074854 0.45244 0.12695 0.55664h0.94726v-0.078125c-0.1237-0.2865-0.18555-0.6731-0.18555-1.1582v-2.4316c-0.013-0.5339-0.19201-0.95121-0.53711-1.2539-0.345-0.306-0.82099-0.45898-1.4297-0.45898zm2.7285 0.097657 1.8848 5.2246-0.20117 0.53711c-0.1106 0.3288-0.25123 0.55404-0.42383 0.67774-0.1692 0.1237-0.40689 0.18555-0.71289 0.18555l-0.24414-0.019532v0.73242l0.33594 0.064453 0.17188 0.013672c0.7162 0 1.2396-0.43946 1.5684-1.3184l2.123-6.0977h-0.9668l-1.2305 3.959-1.3184-3.959h-0.98633zm-38.604 0.64453c0.4558 0 0.82035 0.17972 1.0938 0.54102 0.2767 0.3581 0.41406 0.82675 0.41406 1.4062 0 0.6477-0.1342 1.1524-0.4043 1.5137-0.2702 0.3581-0.63475 0.53711-1.0938 0.53711-0.4557 0-0.82035-0.17645-1.0938-0.53125-0.2702-0.3548-0.4043-0.82621-0.4043-1.4121 0-0.6608 0.1348-1.1685 0.4082-1.5234 0.2735-0.3548 0.63418-0.53125 1.0801-0.53125zm5.7031 0c0.4557 0 0.82035 0.17972 1.0938 0.54102 0.2767 0.3581 0.41602 0.82675 0.41602 1.4062 0 0.6477-0.13605 1.1524-0.40625 1.5137-0.2702 0.3581-0.63475 0.53711-1.0938 0.53711-0.4557 0-0.82035-0.17645-1.0938-0.53125-0.2702-0.3548-0.40625-0.82621-0.40625-1.4121 0-0.6608 0.13861-1.1685 0.41211-1.5234 0.2734-0.3548 0.63212-0.53125 1.0781-0.53125zm13.672 0c0.3777 0 0.67704 0.12696 0.89844 0.38086 0.2213 0.2506 0.34499 0.60545 0.37109 1.0645v0.06836h-2.6465c0.0586-0.4785 0.21158-0.84958 0.45898-1.1133 0.2474-0.2669 0.55347-0.40039 0.91797-0.40039zm-8.0332 0.023437c0.5534 0 0.96939 0.25321 1.2461 0.75781v2.4121c-0.2669 0.5175-0.68431 0.77539-1.2539 0.77539-0.4395 0-0.78129-0.16921-1.0254-0.50781-0.2442-0.3418-0.36719-0.81055-0.36719-1.4062 0-0.6706 0.12379-1.1758 0.37109-1.5176 0.2474-0.3418 0.5899-0.51367 1.0293-0.51367zm-34 1.166-9.207 8.8848 8.1562-4.4688 3.5078-2.0312-2.457-2.3848zm58.889 0.88477h0.70703v1.084c-0.1139 0.2344-0.29688 0.42577-0.55078 0.57227s-0.52344 0.21875-0.80664 0.21875c-0.2962 0-0.53776-0.078682-0.72656-0.23828-0.1888-0.1595-0.2832-0.38086-0.2832-0.66406 0-0.6478 0.55336-0.97266 1.6602-0.97266z" fill="#646464"/></svg>
