<?xml version="1.0" encoding="UTF-8"?>
<svg width="74" height="23" fill="none" version="1.1" viewBox="0 0 74 23" xmlns="http://www.w3.org/2000/svg"><path d="m2.8555 0c-1.5816 5.9212e-16 -2.8555 1.3018-2.8555 2.918v17.148c2.9606e-16 1.6161 1.2738 2.9336 2.8555 2.9336h68.289c1.5817 0 2.8555-1.3175 2.8555-2.9336v-17.148c0-1.6161-1.2738-2.918-2.8555-2.918h-68.289zm9.5723 4.4824c0.0579 0 0.10156 0.043692 0.10156 0.10156 0.0868 0.7668-0.18848 1.6216-0.73828 2.2871-0.5208 0.63658-1.2871 1.0273-1.9961 1.0273h-0.14453c-0.04341 0-0.10156-0.043692-0.10156-0.10156-0.11574-0.8536 0.31906-1.7077 0.76758-2.2285 0.5208-0.60765 1.3879-1.057 2.1113-1.0859zm24.514 2.7441h0.31055v2.5723h-0.31055v-2.5723zm5.7754 0h0.31055v2.5723h-0.28516l-0.015626-0.19336c-0.1239 0.15188-0.29648 0.22656-0.51758 0.22656-0.21 0-0.38077-0.085823-0.51367-0.25781-0.1318-0.17198-0.19922-0.39492-0.19922-0.67188v-0.023438c0-0.27808 0.067419-0.50324 0.19922-0.67188 0.1318-0.16975 0.30418-0.25391 0.51758-0.25391 0.2121 0 0.37991 0.07357 0.50391 0.21875v-0.94531zm7.4668 0h0.30859v0.98047c0.1374-0.16864 0.31711-0.25391 0.53711-0.25391 0.3831 0 0.57678 0.21623 0.58008 0.64844v1.1973h-0.31055v-1.1992c-0.0011-0.13067-0.030744-0.22652-0.089844-0.28906-0.0581-0.06254-0.14944-0.09375-0.27344-0.09375-0.1005 0-0.18962 0.026468-0.26562 0.080078-0.0759 0.05361-0.13524 0.12383-0.17773 0.21094v1.291h-0.30859v-2.5723zm-21.9 0.13281h0.6875c0.2122 0 0.40135 0.048768 0.56445 0.14258 0.163 0.09381 0.28875 0.22729 0.37695 0.40039 0.0893 0.17311 0.13367 0.37123 0.13477 0.5957v0.15625c0 0.23006-0.043513 0.43042-0.13281 0.60352-0.088299 0.17311-0.21556 0.30574-0.38086 0.39844-0.1642 0.09269-0.35532 0.14035-0.57422 0.14258h-0.67578v-2.4395zm20.889 0.18945h0.30859v0.4375h0.33984v0.24023h-0.33984v1.123c0 0.07259 0.014722 0.1272 0.044922 0.16406 0.0301 0.03573 0.081696 0.054688 0.1543 0.054688 0.035699 0 0.085937-0.0061313 0.14844-0.019531v0.25c-0.0815 0.0223-0.16118 0.033203-0.23828 0.033203-0.1385 0-0.2422-0.04124-0.3125-0.125-0.0704-0.08376-0.10547-0.2033-0.10547-0.35742v-1.123h-0.33008v-0.24023h0.33008v-0.4375zm-20.566 0.076172v1.9121h0.33789c0.248 0 0.44072-0.078302 0.57812-0.23242 0.1385-0.15412 0.20703-0.37342 0.20703-0.6582v-0.14258c0-0.27696-0.064613-0.49152-0.19531-0.64453-0.1295-0.15411-0.31373-0.23214-0.55273-0.23438h-0.375zm-16.408 0.17188c0.0868 0 0.15817-7.881e-4 0.23047 0.013672 0.5064 0.02894 1.7808 0.20267 2.6055 1.418 0.0144 0.02894 0.013672 0.056998 0.013672 0.085938 0 0.02893-0.013969 0.057796-0.042969 0.072266h-0.015625c-0.2459 0.14468-1.446 0.96948-1.4316 2.5176 0.0145 1.9097 1.6057 2.6191 1.7793 2.6914h0.013671c0.0434 0.0289 0.073094 0.086631 0.058594 0.14453v0.015625c-0.1013 0.3182-0.39005 1.1414-0.96875 1.9805-0.5498 0.8102-1.172 1.7375-2.1992 1.752-0.4775 0.0144-0.79693-0.13152-1.1152-0.26172s-0.63536-0.27344-1.1562-0.27344c-0.54978 0-0.89771 0.14436-1.2305 0.28906-0.28935 0.1302-0.60778 0.26089-1.0273 0.27539h-0.056641c-0.91148 0-1.5775-0.85452-2.2285-1.7949-1.3166-1.8953-2.0692-5.0198-0.88281-7.0742 0.62212-1.0851 1.7511-1.766 2.9375-1.7949h0.042969c0.52084 0 1.0121 0.20334 1.4316 0.37695 0.31829 0.11574 0.59353 0.23047 0.81055 0.23047 0.18808 0 0.46408-0.1151 0.79688-0.25977 0.463-0.17362 1.0271-0.4043 1.6348-0.4043zm19.029 0.15625c0.2468 0 0.44576 0.084989 0.59766 0.25586 0.153 0.17087 0.23047 0.39798 0.23047 0.68164v0.023438c0 0.17646-0.035416 0.33389-0.10352 0.47461-0.067 0.1396-0.16286 0.24799-0.28906 0.32617-0.1251 0.07818-0.26864 0.11719-0.43164 0.11719-0.2457 1e-7 -0.44661-0.084989-0.59961-0.25586-0.1519-0.17087-0.22656-0.39629-0.22656-0.67773v-0.021484c0-0.17757 0.034216-0.33864 0.10352-0.48047 0.070301-0.14183 0.16702-0.25106 0.29102-0.32812 0.125-0.07706 0.26803-0.11523 0.42773-0.11523zm4.6426 0c0.3831 0 0.57482 0.21623 0.57812 0.64844v1.1973h-0.30859v-1.1992c-0.0011-0.13067-0.032597-0.22652-0.091797-0.28906-0.058-0.06254-0.14758-0.09375-0.27148-0.09375-0.1005 0-0.18972 0.026468-0.26562 0.080078s-0.13524 0.12383-0.17774 0.21094v1.291h-0.31055v-1.8125h0.29492l0.009766 0.22852c0.1385-0.17423 0.31957-0.26172 0.54297-0.26172zm2.6211 0c0.2468 0 0.44576 0.084989 0.59766 0.25586 0.153 0.17087 0.23047 0.39798 0.23047 0.68164v0.023438c0 0.17646-0.035315 0.33389-0.10352 0.47461-0.067 0.1396-0.16286 0.24799-0.28906 0.32617-0.1251 0.07818-0.26854 0.11719-0.43164 0.11719-0.2457 1e-7 -0.44661-0.084989-0.59961-0.25586-0.1519-0.17087-0.22656-0.39629-0.22656-0.67773v-0.021484c0-0.17757 0.034315-0.33864 0.10352-0.48047 0.0704-0.14183 0.16702-0.25106 0.29102-0.32812 0.1251-0.07706 0.26803-0.11523 0.42773-0.11523zm1.9219 0c0.2089 0 0.37184 0.053223 0.49024 0.1582 0.1183 0.10387 0.17919 0.24653 0.18359 0.42969v0.83398c0 0.1664 0.021953 0.30016 0.064453 0.39844v0.025391h-0.32422c-0.0179-0.03574-0.033722-0.097873-0.044922-0.18945-0.144 0.14965-0.31572 0.22266-0.51562 0.22266-0.1787 0-0.32445-0.049881-0.43945-0.15039-0.1139-0.10163-0.17188-0.22953-0.17188-0.38477 0-0.18874 0.071844-0.33559 0.21484-0.43945 0.144-0.10498 0.34527-0.15625 0.60547-0.15625h0.30274v-0.14258c0-0.10833-0.032957-0.19415-0.097656-0.25781-0.0648-0.06477-0.16091-0.097656-0.28711-0.097656-0.1106 0-0.20254 0.028144-0.27734 0.083984s-0.11328 0.12382-0.11328 0.20312h-0.31055c0-0.09046 0.032003-0.17796 0.095703-0.26172 0.0647-0.08488 0.15232-0.15203 0.26172-0.20117 0.1106-0.04914 0.23148-0.074219 0.36328-0.074219zm4.6875 0c0.2468 0 0.44781 0.084989 0.59961 0.25586 0.153 0.17087 0.22852 0.39798 0.22852 0.68164v0.023438c0 0.17646-0.033462 0.33389-0.10156 0.47461-0.0671 0.1396-0.16482 0.24799-0.29102 0.32617-0.125 0.07818-0.26854 0.11719-0.43164 0.11719-0.2457 1e-7 -0.44466-0.084989-0.59766-0.25586-0.1519-0.17087-0.22852-0.39629-0.22852-0.67773v-0.021484c0-0.17757 0.034315-0.33864 0.10352-0.48047 0.0704-0.14183 0.16907-0.25106 0.29297-0.32812 0.1251-0.07706 0.26608-0.11523 0.42578-0.11523zm2.0625 0c0.383 0 0.57668 0.21623 0.58008 0.64844v1.1973h-0.31055v-1.1992c-0.0012-0.13067-0.030644-0.22652-0.089844-0.28906-0.0581-0.06254-0.14944-0.09375-0.27344-0.09375-0.1005 0-0.18777 0.026468-0.26367 0.080078-0.076002 0.05361-0.13534 0.12383-0.17774 0.21094v1.291h-0.31055v-1.8125h0.29297l0.009766 0.22852c0.1385-0.17423 0.31957-0.26172 0.54297-0.26172zm5.625 0c0.2356 0 0.41813 0.077182 0.54883 0.23242 0.1306 0.15523 0.19531 0.37872 0.19531 0.66797v0.12891h-1.2285c0.0045 0.17869 0.05685 0.32303 0.15625 0.43359 0.1005 0.10945 0.22871 0.16406 0.38281 0.16406 0.1094 0 0.20134-0.021736 0.27734-0.066406 0.0759-0.04467 0.14222-0.10402 0.19922-0.17773l0.18945 0.14648c-0.1519 0.23341-0.37979 0.34961-0.68359 0.34961-0.2457 1e-7 -0.44551-0.079424-0.59961-0.24023-0.1541-0.16194-0.23047-0.37818-0.23047-0.64844v-0.056641c0-0.17981 0.033462-0.33976 0.10156-0.48047 0.0693-0.14184 0.16626-0.25274 0.28906-0.33203 0.124-0.08041 0.25824-0.12109 0.40234-0.12109zm-20.508 0.033203h0.30859l0.35742 1.3574 0.42188-1.3574h0.25l0.42969 1.3867 0.34961-1.3867h0.30859l-0.52734 1.8125h-0.25l-0.44141-1.373-0.42969 1.373h-0.25l-0.52734-1.8125zm-1.0527 0.2207c-0.153 0-0.27729 0.061864-0.37109 0.18359s-0.14062 0.29673-0.14062 0.52344c0 0.20103 0.047925 0.36069 0.14062 0.48242 0.0938 0.12173 0.2186 0.18359 0.375 0.18359 0.1574 0 0.2823-0.060744 0.375-0.18359 0.0927-0.12397 0.13867-0.29729 0.13867-0.51953 0-0.19879-0.047679-0.35957-0.14258-0.48242-0.093799-0.12396-0.2186-0.1875-0.375-0.1875zm7.2637 0c-0.153 0-0.27729 0.061864-0.37109 0.18359-0.0939 0.12173-0.14062 0.29673-0.14062 0.52344 0 0.20103 0.047925 0.36069 0.14062 0.48242 0.0938 0.12173 0.2187 0.18359 0.375 0.18359 0.1575 0 0.2823-0.060744 0.375-0.18359 0.0927-0.12397 0.13867-0.29729 0.13867-0.51953 0-0.19879-0.047678-0.35957-0.14258-0.48242-0.0938-0.12396-0.2187-0.1875-0.375-0.1875zm6.6094 0c-0.153 0-0.27534 0.061864-0.36914 0.18359s-0.14062 0.29673-0.14062 0.52344c0 0.20103 0.045972 0.36069 0.13867 0.48242 0.0938 0.12173 0.2187 0.18359 0.375 0.18359 0.1575 0 0.2823-0.060744 0.375-0.18359 0.0927-0.12397 0.13867-0.29729 0.13867-0.51953 0-0.19879-0.045625-0.35957-0.14063-0.48242-0.093799-0.12396-0.22065-0.1875-0.37695-0.1875zm7.6875 0c-0.1251 0-0.23161 0.047092-0.31641 0.13867-0.0849 0.09046-0.13615 0.21669-0.15625 0.38086h0.9082v-0.023438c-0.0089-0.15747-0.052906-0.27924-0.12891-0.36523-0.0759-0.08711-0.17714-0.13086-0.30664-0.13086zm-10.498 0.0097657c-0.1519 0-0.27057 0.058511-0.35547 0.17578-0.0849 0.11726-0.12695 0.29142-0.12695 0.52148 0 0.20549 0.042053 0.36627 0.12695 0.48242 0.0849 0.11614 0.20186 0.17383 0.35156 0.17383 0.1965 0 0.34114-0.089175 0.43164-0.26562v-0.83203c-0.0927-0.17087-0.23564-0.25586-0.42774-0.25586zm-1.7559 0.70312c-0.3797 0-0.56836 0.11173-0.56836 0.33398 0 0.09716 0.030903 0.17184 0.095703 0.22656 0.0648 0.05473 0.1484 0.082031 0.25 0.082031 0.0972 0 0.19024-0.023959 0.27734-0.074219 0.0871-0.05025 0.15035-0.11686 0.18945-0.19727v-0.37109h-0.24414zm1.4551 3.1914c0.2863 0 0.54232 0.055316 0.76562 0.16602 0.2252 0.1107 0.39743 0.26243 0.51953 0.45703 0.1241 0.1947 0.1875 0.40777 0.1875 0.63867h-0.55274c0-0.2519-0.079934-0.45055-0.24023-0.59375-0.1603-0.145-0.38769-0.2168-0.67969-0.2168-0.271 0-0.48206 0.059487-0.63476 0.17969-0.1508 0.1184-0.22656 0.28419-0.22656 0.49609 0 0.1698 0.071644 0.31324 0.21484 0.43164 0.145 0.1164 0.39083 0.22301 0.73633 0.32031 0.3473 0.0973 0.6178 0.20592 0.8125 0.32422 0.1966 0.1164 0.34205 0.25366 0.43555 0.41016 0.0955 0.1564 0.14258 0.34084 0.14258 0.55274 0 0.3378-0.13113 0.6083-0.39453 0.8125-0.2634 0.2023-0.61584 0.30273-1.0566 0.30273-0.2863 0-0.55463-0.053409-0.80273-0.16211-0.2481-0.1107-0.43872-0.26222-0.57422-0.45312-0.1336-0.1908-0.20117-0.40799-0.20117-0.65039h0.55274c0 0.2519 0.092243 0.45271 0.27734 0.59961 0.187 0.1451 0.43695 0.2168 0.74805 0.2168 0.2901 0 0.51142-0.059434 0.66602-0.17773s0.23242-0.27822 0.23242-0.48242-0.071744-0.36196-0.21484-0.47266c-0.1432-0.1126-0.4033-0.22333-0.7793-0.33203-0.4714-0.1355-0.8136-0.30145-1.0293-0.49805-0.2138-0.1984-0.32031-0.44428-0.32031-0.73438 0-0.3283 0.12912-0.5988 0.39062-0.8125 0.2633-0.2157 0.60559-0.32227 1.0254-0.32227zm-11.969 0.056641h0.48047l1.5957 4.168h-0.56445l-0.39844-1.0879h-1.7461l-0.39258 1.0879h-0.56641l1.5918-4.168zm14.262 0.32031h0.5293v0.75h0.57812v0.41016h-0.57812v1.9199c0 0.124 0.026625 0.21825 0.078125 0.28125 0.0515 0.0611 0.13957 0.091797 0.26367 0.091797 0.061 0 0.14505-0.012256 0.25195-0.035156v0.42969c-0.1393 0.0381-0.27455 0.05664-0.40625 0.05664-0.2367 0-0.41486-0.071644-0.53516-0.21484-0.1202-0.1431-0.18164-0.34608-0.18164-0.60938v-1.9199h-0.56445v-0.41016h0.56445v-0.75zm-14.021 0.35742-0.70703 1.9492h1.418l-0.71094-1.9492zm3.7227 0.33594c0.3722 0 0.66516 0.13932 0.88086 0.41992 0.2175 0.2805 0.32617 0.67188 0.32617 1.1719v0.048828c0 0.4714-0.10852 0.85047-0.32422 1.1387-0.2156 0.2881-0.5066 0.43164-0.875 0.43164-0.3759 0-0.67112-0.11882-0.88672-0.35742v1.4922h-0.53125v-4.2891h0.48438l0.02539 0.34375c0.2157-0.2672 0.51679-0.40039 0.90039-0.40039zm3.291 0c0.3721 0 0.66721 0.13932 0.88281 0.41992 0.2176 0.2805 0.32617 0.67188 0.32617 1.1719v0.048828c0 0.4714-0.10862 0.85047-0.32422 1.1387-0.2157 0.2881-0.5067 0.43164-0.875 0.43164-0.376 0-0.67297-0.11882-0.88867-0.35742v1.4922h-0.5293v-4.2891h0.48438l0.025391 0.34375c0.2157-0.2672 0.51484-0.40039 0.89844-0.40039zm9.9453 0c0.4217 0 0.76188 0.1455 1.0215 0.4375 0.2614 0.292 0.39258 0.68122 0.39258 1.166v0.03711c1e-6 0.3015-0.057328 0.572-0.17383 0.8125-0.1145 0.2386-0.28049 0.42499-0.49609 0.55859-0.2138 0.1336-0.45968 0.19922-0.73828 0.19922-0.4199 0-0.75998-0.1455-1.0215-0.4375-0.2596-0.292-0.39062-0.67916-0.39062-1.1602v-0.03711c0-0.3034 0.059434-0.57606 0.17773-0.81836 0.1203-0.2424 0.28615-0.42895 0.49805-0.56055 0.2137-0.1317 0.45747-0.19726 0.73047-0.19726zm3.3418 0c0.103 0 0.18098 0.012362 0.23438 0.039062v0.49219c-0.0801-0.0134-0.16822-0.019532-0.26172-0.019532-0.3473 0-0.58293 0.14756-0.70703 0.44336v2.1992h-0.5293v-3.0977h0.51562l0.007812 0.35742c0.1737-0.2767 0.42154-0.41406 0.74024-0.41406zm1.8848 0c0.4027 0 0.71615 0.13118 0.93945 0.39648 0.2233 0.2652 0.33594 0.64632 0.33594 1.1406v0.2207h-2.0996c0.0076 0.3053 0.097678 0.55133 0.26758 0.74024 0.1718 0.187 0.38894 0.28125 0.65234 0.28125 0.187-1e-6 0.34481-0.038835 0.47461-0.11524 0.1298-0.0763 0.2445-0.17673 0.3418-0.30273l0.32227 0.25195c-0.2596 0.3989-0.64887 0.59766-1.168 0.59766-0.4199 0-0.76199-0.13731-1.0254-0.41211-0.2634-0.2767-0.39453-0.64552-0.39453-1.1074v-0.097656c0-0.3073 0.059381-0.58187 0.17578-0.82227 0.1183-0.2424 0.28219-0.43091 0.49219-0.56641 0.2118-0.1375 0.43935-0.20508 0.68555-0.20508zm-5.2266 0.43359c-0.2615 0-0.47251 0.1045-0.63281 0.3125-0.1603 0.208-0.24024 0.50713-0.24024 0.89453 0 0.3435 0.079881 0.61817 0.23828 0.82617 0.1603 0.208 0.37342 0.3125 0.64062 0.3125 0.2691-1e-6 0.48222-0.10455 0.64062-0.31445 0.1585-0.2119 0.23828-0.50887 0.23828-0.88867 0-0.3397-0.081941-0.61422-0.24414-0.82422-0.1603-0.2118-0.37342-0.31836-0.64062-0.31836zm5.2266 0c-0.2137 0-0.39201 0.079829-0.53711 0.23633-0.145 0.1546-0.23513 0.37184-0.26953 0.65234h1.5527v-0.041015c-0.0152-0.2691-0.08895-0.47615-0.21875-0.62305-0.1298-0.1489-0.30594-0.22461-0.52734-0.22461zm-18.621 0.015625c-0.3206 0-0.5604 0.14148-0.7207 0.42578v1.4805c0.1584 0.2824 0.40026 0.42383 0.72656 0.42383 0.2538 0 0.45462-0.10038 0.60352-0.30078 0.1507-0.2023 0.22656-0.50154 0.22656-0.89844 0-0.3493-0.073756-0.62582-0.22266-0.82812-0.1488-0.2023-0.35378-0.30274-0.61328-0.30274zm3.291 0c-0.3206 0-0.5604 0.14148-0.7207 0.42578v1.4805c0.1584 0.2824 0.40016 0.42383 0.72656 0.42383 0.2538 0 0.45657-0.10038 0.60547-0.30078 0.1508-0.2023 0.22656-0.50154 0.22656-0.89844 0-0.3493-0.075809-0.62582-0.22461-0.82812-0.1489-0.2023-0.35368-0.30274-0.61328-0.30274z" fill="#575757"/></svg>
