<?xml version="1.0" encoding="UTF-8"?>
<svg width="74" height="23" fill="none" version="1.1" viewBox="0 0 74 23" xmlns="http://www.w3.org/2000/svg"><path d="m2.8555 0c-1.5816-2.9606e-16 -2.8555 1.3018-2.8555 2.918v17.164c-5.9212e-16 1.6161 1.2738 2.918 2.8555 2.918h68.289c1.5816 0 2.8701-1.3175 2.8555-2.9336v-17.148c0-1.6161-1.2739-2.918-2.8555-2.918h-68.289zm1.7012 3.8613 6.7129 3.4434 3.0684 1.7637-2.1992 2.127-7.582-7.334zm-0.44727 0.28906 7.6523 7.4063-7.668 7.4082 0.015625-14.814zm25.066 1.627h0.31055v2.5723h-0.31055v-2.5723zm2.6738 0h0.31055v0.95898c0.125-0.15524 0.29758-0.23242 0.51758-0.23242 0.22 1e-7 0.39248 0.0836 0.51758 0.25 0.1262 0.1664 0.18945 0.39434 0.18945 0.68359v0.027344c0 0.27697-0.064107 0.49934-0.19141 0.66797-0.1274 0.16752-0.29917 0.25195-0.51367 0.25195-0.2289 0-0.4042-0.082201-0.5293-0.24414l-0.015625 0.20898h-0.28516v-2.5723zm1.9531 0h0.31055v2.5723h-0.31055v-2.5723zm9.3008 0h0.31055v0.98047c0.1374-0.16864 0.31516-0.25391 0.53516-0.25391 0.383 0 0.57678 0.21623 0.58008 0.64844v1.1973h-0.31055v-1.1992c-0.0011-0.13067-0.030644-0.22652-0.089844-0.28906-0.058-0.06254-0.14954-0.09375-0.27344-0.09375-0.1005 0-0.18777 0.026468-0.26367 0.080078-0.0759 0.05361-0.13524 0.12383-0.17774 0.21094v1.291h-0.31055v-2.5723zm-14.604 0.099609c0.0603 0 0.10552 0.018115 0.13672 0.052734 0.0313 0.03462 0.046875 0.076693 0.046875 0.12695 0 0.05025-0.015575 0.093443-0.046875 0.12695-0.0312 0.0335-0.076419 0.048828-0.13672 0.048828-0.060302 0-0.10737-0.015328-0.13867-0.048828-0.0302-0.03351-0.044922-0.076703-0.044922-0.12695 0-0.05026 0.014722-0.092333 0.044922-0.12695 0.0313-0.03462 0.078372-0.052734 0.13867-0.052734zm-5.0957 0.035156h0.28125l0.93164 2.4375h-0.33008l-0.23242-0.63672h-1.0215l-0.23047 0.63672h-0.33008l0.93164-2.4375zm18.688 0.1875h0.31055v0.4375h0.33789v0.24023h-0.33789v1.125c0 0.07259 0.014822 0.1272 0.044922 0.16406 0.0302 0.03573 0.081696 0.052734 0.1543 0.052734 0.035701 0 0.083885-0.0061312 0.14648-0.019531v0.25c-0.0816 0.02234-0.16118 0.035156-0.23828 0.035156-0.1385 0-0.2421-0.043193-0.3125-0.12695-0.070299-0.08376-0.10547-0.20135-0.10547-0.35547v-1.125h-0.33008v-0.24023h0.33008v-0.4375zm-18.547 0.20898-0.41406 1.1406h0.82812l-0.41406-1.1406zm3.6094 0.19531c0.2088 1e-7 0.37183 0.053223 0.49023 0.1582 0.1184 0.10387 0.18105 0.24653 0.18555 0.42969v0.83398c0 0.1664 0.0201 0.30016 0.0625 0.39844v0.025391h-0.32422c-0.0178-0.03574-0.033722-0.097873-0.044921-0.18945-0.1441 0.14965-0.31572 0.22461-0.51563 0.22461-0.1787 0-0.32445-0.051834-0.43945-0.15234-0.114-0.10163-0.17188-0.22953-0.17188-0.38477 0-0.18874 0.071944-0.33559 0.21484-0.43945 0.1441-0.10498 0.34527-0.15625 0.60547-0.15625h0.30273v-0.14258c0-0.10833-0.032856-0.19415-0.097656-0.25781-0.0648-0.06477-0.16091-0.097656-0.28711-0.097656-0.1105 0-0.20254 0.028144-0.27734 0.083984-0.074898 0.05584-0.11133 0.12382-0.11133 0.20312h-0.3125c0-0.09046 0.032103-0.17796 0.095703-0.26172 0.0648-0.08488 0.15222-0.15203 0.26172-0.20117 0.1105-0.04914 0.23148-0.074219 0.36328-0.074219zm3.5352 0c0.2089 1e-7 0.37183 0.053223 0.49024 0.1582 0.1184 0.10387 0.17919 0.24653 0.18359 0.42969v0.83398c0 0.1664 0.022053 0.30016 0.064453 0.39844v0.025391h-0.32422c-0.0179-0.03574-0.033822-0.097873-0.044922-0.18945-0.1441 0.14965-0.31572 0.22461-0.51562 0.22461-0.1787 0-0.32641-0.051834-0.44141-0.15234-0.1139-0.10163-0.16992-0.22953-0.16992-0.38477 0-0.18874 0.071843-0.33559 0.21484-0.43945 0.144-0.10498 0.34527-0.15625 0.60547-0.15625h0.30274v-0.14258c-1e-6 -0.10833-0.032957-0.19415-0.097657-0.25781-0.0648-0.06477-0.16091-0.097656-0.28711-0.097656-0.1106 0-0.20244 0.028144-0.27734 0.083984-0.074801 0.05584-0.11328 0.12382-0.11328 0.20312h-0.31055c0-0.09046 0.032003-0.17796 0.095703-0.26172 0.0648-0.08488 0.15232-0.15203 0.26172-0.20117 0.1106-0.04914 0.23158-0.074219 0.36328-0.074219zm4.6348 0c0.2356 2e-7 0.41813 0.077182 0.54883 0.23242 0.1306 0.15523 0.19726 0.37872 0.19726 0.66797v0.12891h-1.2285c0.0045 0.17869 0.05685 0.32303 0.15625 0.43359 0.1006 0.10945 0.22676 0.16406 0.38086 0.16406 0.1094 0 0.2033-0.021736 0.2793-0.066406 0.0759-0.04467 0.14232-0.10402 0.19922-0.17773l0.18945 0.14648c-0.1519 0.23341-0.37979 0.35156-0.68359 0.35156-0.2457 0-0.44551-0.081378-0.59961-0.24219-0.1541-0.16194-0.23242-0.37818-0.23242-0.64844v-0.056641c0-0.17981 0.035416-0.33976 0.10352-0.48047 0.0693-0.14184 0.16421-0.25274 0.28711-0.33203 0.1239-0.08041 0.25824-0.12109 0.40234-0.12109zm2.6973 0c0.2468 1e-7 0.44576 0.084989 0.59766 0.25586 0.153 0.17087 0.23047 0.39798 0.23047 0.68164v0.023438c0 0.17646-0.035315 0.33389-0.10352 0.47461-0.067 0.1396-0.16286 0.24799-0.28906 0.32617-0.1251 0.07818-0.26854 0.11914-0.43164 0.11914-0.2457 0-0.44661-0.086942-0.59961-0.25781-0.1519-0.17087-0.22656-0.39629-0.22656-0.67773v-0.021484c0-0.17757 0.034315-0.33864 0.10352-0.48047 0.0704-0.14183 0.16702-0.25106 0.29102-0.32812 0.1251-0.07706 0.26803-0.11523 0.42773-0.11523zm2.0625 0c0.3831 0 0.57472 0.21623 0.57812 0.64844v1.1973h-0.30859v-1.1992c-0.0011-0.13067-0.032597-0.22652-0.091797-0.28906-0.0581-0.06254-0.14748-0.09375-0.27148-0.09375-0.1005 0-0.18962 0.026468-0.26562 0.080078-0.0759 0.05361-0.13533 0.12383-0.17773 0.21094v1.291h-0.30859v-1.8125h0.29297l0.009766 0.22852c0.1385-0.17423 0.31967-0.26172 0.54297-0.26172zm5.623 0c0.2356 2e-7 0.41823 0.077182 0.54883 0.23242 0.1307 0.15523 0.19727 0.37872 0.19727 0.66797v0.12891h-1.2285c0.0045 0.17869 0.05685 0.32303 0.15625 0.43359 0.1005 0.10945 0.22676 0.16406 0.38086 0.16406 0.1095 0 0.2034-0.021736 0.2793-0.066406 0.076-0.04467 0.14222-0.10402 0.19922-0.17773l0.18945 0.14648c-0.1519 0.23341-0.37979 0.35156-0.68359 0.35156-0.2457 0-0.44551-0.081378-0.59961-0.24219-0.1541-0.16194-0.23242-0.37818-0.23242-0.64844v-0.056641c0-0.17981 0.035416-0.33976 0.10352-0.48047 0.0692-0.14184 0.16431-0.25274 0.28711-0.33203 0.124-0.08041 0.25824-0.12109 0.40234-0.12109zm-21.072 0.033203h0.31641l0.46094 1.3926 0.44922-1.3926h0.31641l-0.65039 1.8125h-0.23633l-0.65625-1.8125zm3.707 0h0.31055v1.8125h-0.31055v-1.8125zm6.9824 0.22266c-0.1251-5e-7 -0.22965 0.045139-0.31445 0.13672-0.084904 0.09046-0.1381 0.21669-0.1582 0.38086h0.9082v-0.023438c-9e-3 -0.15747-0.050953-0.27924-0.12695-0.36523-0.075898-0.08711-0.17899-0.12891-0.30859-0.12891zm2.6973 0c-0.153 0-0.27719 0.059911-0.37109 0.18164-0.093805 0.12173-0.14062 0.29673-0.14062 0.52344 0 0.20103 0.045971 0.36264 0.13867 0.48438 0.0938 0.12173 0.22065 0.18164 0.37695 0.18164 0.1575 0 0.2823-0.060744 0.375-0.18359 0.092701-0.12397 0.13867-0.29729 0.13867-0.51953 0-0.19879-0.047678-0.35957-0.14258-0.48242-0.0938-0.12396-0.2187-0.18555-0.375-0.18555zm7.6855 0c-0.1251-5e-7 -0.22955 0.045139-0.31445 0.13672-0.084803 0.09046-0.1381 0.21669-0.1582 0.38086h0.9082v-0.023438c-0.0089-0.15747-0.051053-0.27924-0.12695-0.36523-0.0759-0.08711-0.17909-0.12891-0.30859-0.12891zm-13.107 0.0078125c-0.2043 0-0.35015 0.095306-0.43945 0.28516v0.7832c0.0949 0.18985 0.24236 0.28516 0.44336 0.28516 0.1485 0 0.26496-0.056845 0.34766-0.17188 0.082597-0.11503 0.12305-0.28835 0.12305-0.51953 0-0.21107-0.041447-0.3752-0.12305-0.49023-0.0815-0.11503-0.19856-0.17188-0.35156-0.17188zm-5.3223 0.70312c-0.3797 0-0.57031 0.11173-0.57031 0.33398 0 0.09716 0.032856 0.17184 0.097657 0.22656 0.064699 0.05473 0.14635 0.082031 0.24805 0.082031 0.0971 0 0.19024-0.023959 0.27734-0.074219 0.0871-0.05025 0.15035-0.11686 0.18945-0.19727v-0.37109h-0.24219zm3.5332 0c-0.3797 0-0.56836 0.11173-0.56836 0.33398 0 0.09716 0.030903 0.17184 0.095703 0.22656 0.0648 0.05473 0.1484 0.082031 0.25 0.082031 0.0972 0 0.19024-0.023959 0.27734-0.074219 0.0871-0.05025 0.15035-0.11686 0.18945-0.19727v-0.37109h-0.24414zm-16.01 1.873 2.791 1.6055c0.1591 0.086799 0.26172 0.26039 0.26172 0.46289 0 0.1881-0.10262 0.34792-0.26172 0.44922l-2.9805 1.7207-2.0977-2.0254 2.2871-2.2129zm21.719 1.709h0.51758v4.2969h-0.51758v-4.2969zm9.4688 0h0.51758v4.2969h-0.51758v-4.2969zm-21.586 0.16797c0.4253 0 0.76804 0.10982 1.0273 0.32812 0.2592 0.2163 0.41876 0.52278 0.47656 0.92188h-0.53711c-0.1007-0.539-0.42199-0.80859-0.96289-0.80859-0.36 0-0.63381 0.12716-0.82031 0.38086-0.1847 0.2518-0.2774 0.61826-0.2793 1.0977v0.33203c0 0.457 0.1036 0.8214 0.3125 1.0918 0.2089 0.2686 0.49136 0.40234 0.84766 0.40234 0.2014 0 0.3783-0.021706 0.5293-0.066406 0.1511-0.0448 0.2762-0.12016 0.375-0.22656v-0.91602h-0.94336v-0.43555h1.4785v1.4941c-0.138 0.1977-0.33208 0.34641-0.58008 0.44531-0.2462 0.097001-0.53313 0.14453-0.86133 0.14453-0.332 0-0.62737-0.077522-0.88477-0.23242-0.2574-0.1566-0.45596-0.37882-0.59766-0.66602-0.1399-0.2873-0.213-0.61945-0.2168-0.99805v-0.35547c0-0.6137 0.14429-1.0901 0.42969-1.4277 0.2872-0.3376 0.68853-0.50586 1.207-0.50586zm18.008 0.056641h1.502c0.4458 0 0.79508 0.11224 1.0469 0.33984 0.2537 0.2275 0.37891 0.5294 0.37891 0.9043 0 0.3954-0.12299 0.70152-0.37109 0.91602-0.2462 0.2127-0.59985 0.31836-1.0605 0.31836h-0.95898v1.5938h-0.53711v-4.0723zm0.53711 0.44141v1.5977h0.96484c0.2873 0 0.50726-0.066872 0.66016-0.20117 0.153-0.1362 0.22852-0.33239 0.22852-0.58789 0-0.2425-0.075515-0.43653-0.22852-0.58203-0.1529-0.1454-0.36221-0.22096-0.62891-0.22656h-0.99609zm-30.809 0.19922 1.9961 1.9395-2.8496 1.6504-6.627 3.6309 7.4805-7.2207zm15.82 0.34961c0.4122-1e-6 0.74435 0.14244 0.99805 0.42773 0.2555 0.2854 0.38477 0.66497 0.38477 1.1387v0.03711c0 0.2947-0.058075 0.55787-0.17188 0.79297-0.1119 0.2331-0.27368 0.41638-0.48438 0.54688-0.2089 0.1306-0.4484 0.19531-0.7207 0.19531-0.4104 0-0.74255-0.14233-0.99805-0.42773-0.2537-0.2854-0.38086-0.66281-0.38086-1.1328v-0.037109c-1e-6 -0.2965 0.056274-0.56388 0.17187-0.80078 0.1175-0.2369 0.28128-0.41817 0.48828-0.54687 0.2089-0.1287 0.44609-0.19336 0.71289-0.19336zm3.2676 0c0.4122-1e-6 0.74445 0.14244 0.99805 0.42773 0.2556 0.2854 0.38477 0.66497 0.38477 1.1387v0.03711c0 0.2947-0.058175 0.55787-0.17188 0.79297-0.1119 0.2331-0.27172 0.41638-0.48242 0.54688-0.2089 0.1306-0.45036 0.19531-0.72266 0.19531-0.4103 0-0.74245-0.14233-0.99805-0.42773-0.2536-0.2854-0.38086-0.66281-0.38086-1.1328v-0.037109c0-0.2965 0.058228-0.56388 0.17383-0.80078 0.1175-0.2369 0.27933-0.41817 0.48633-0.54687 0.2089-0.1287 0.44619-0.19336 0.71289-0.19336zm3.1035 0c0.3693 0 0.65628 0.12942 0.86328 0.39062l0.025391-0.33594h0.47266v2.9551c0 0.3916-0.11641 0.70008-0.34961 0.92578-0.2313 0.2257-0.54189 0.33984-0.93359 0.33984-0.2182 0-0.43172-0.047425-0.64062-0.14062-0.2089-0.093299-0.36852-0.22061-0.47852-0.38281l0.26758-0.31055c0.2219 0.2742 0.49365 0.41016 0.81445 0.41016 0.2518 0 0.44809-0.071191 0.58789-0.21289 0.1418-0.1418 0.21289-0.34026 0.21289-0.59766v-0.25977c-0.2071 0.2388-0.48946 0.35742-0.84766 0.35742-0.3543 0-0.64123-0.14233-0.86133-0.42773-0.2182-0.2854-0.32812-0.67362-0.32812-1.166 0-0.4719 0.10992-0.8471 0.32812-1.125 0.2183-0.2797 0.50729-0.41992 0.86719-0.41992zm4.7305 0c0.3936 0 0.69977 0.12937 0.91797 0.38867 0.2182 0.2592 0.32617 0.63018 0.32617 1.1133v0.21484h-2.0508c0.0075 0.2984 0.095719 0.54001 0.26172 0.72461 0.1678 0.1828 0.37932 0.27539 0.63672 0.27539 0.1828 0 0.33804-0.038681 0.46484-0.11328 0.1268-0.0746 0.23693-0.17182 0.33203-0.29492l0.31641 0.24609c-0.2537 0.3898-0.63332 0.58398-1.1406 0.58398-0.4103 0-0.74455-0.13374-1.002-0.40234-0.2574-0.2705-0.38672-0.63258-0.38672-1.084v-0.09375c0-0.3003 0.058075-0.56774 0.17188-0.80273 0.1156-0.2369 0.27527-0.42229 0.48047-0.55469 0.207-0.1343 0.43128-0.20117 0.67188-0.20117zm9.4531 0c0.3487 0 0.62261 0.086319 0.82031 0.26172 0.1977 0.1734 0.30109 0.4148 0.30859 0.7207v1.3926c0 0.2779 0.034569 0.49801 0.10547 0.66211v0.044921h-0.54297c-0.0298-0.0597-0.053666-0.16546-0.072266-0.31836-0.2406 0.2499-0.52753 0.375-0.86133 0.375-0.2985 0-0.54413-0.084153-0.73633-0.25195-0.1902-0.1698-0.28516-0.38338-0.28516-0.64258 0-0.3152 0.11862-0.56098 0.35742-0.73438 0.2406-0.1754 0.57907-0.26172 1.0137-0.26172h0.50391v-0.23828c0-0.181-0.055864-0.32534-0.16406-0.43164-0.1082-0.1082-0.26782-0.16211-0.47852-0.16211-0.1847 0-0.33799 0.047425-0.46289 0.14062-0.125 0.093299-0.1875 0.20539-0.1875 0.33789h-0.52148c0-0.1511 0.053856-0.29565 0.16016-0.43555 0.1082-0.1417 0.25285-0.25394 0.43555-0.33594 0.1847-0.082097 0.38732-0.12305 0.60742-0.12305zm1.5645 0.054688h0.56445l0.75586 2.2695 0.70508-2.2695h0.55469l-1.2168 3.4961c-0.1884 0.5036-0.48804 0.75391-0.89844 0.75391l-0.097657-0.007813-0.19336-0.037109v-0.41797l0.13867 0.009766c0.1754 0 0.31316-0.034669 0.41016-0.10547 0.0989-0.0709 0.17879-0.20027 0.24219-0.38867l0.11523-0.30859-1.0801-2.9941zm-22.119 0.37109c-0.2556 0-0.46254 0.10139-0.61914 0.30469-0.1567 0.2033-0.23438 0.49445-0.23438 0.87305 0 0.3357 0.077522 0.60529 0.23242 0.80859 0.1566 0.2033 0.36575 0.30469 0.62695 0.30469 0.2629 0 0.47215-0.10339 0.62695-0.30859 0.1549-0.207 0.23242-0.49599 0.23242-0.86719 0-0.332-0.079781-0.59949-0.23828-0.80469-0.1567-0.207-0.36585-0.31055-0.62695-0.31055zm3.2676 0c-0.2555 0-0.46049 0.10139-0.61719 0.30469-0.1566 0.2033-0.23633 0.49445-0.23633 0.87305 0 0.3357 0.077622 0.60529 0.23242 0.80859 0.1567 0.2033 0.36585 0.30469 0.62695 0.30469 0.263 0 0.47215-0.10339 0.62695-0.30859 0.1548-0.207 0.23242-0.49599 0.23242-0.86719 0-0.332-0.079681-0.59949-0.23828-0.80469-0.1566-0.207-0.36575-0.31055-0.62695-0.31055zm7.834 0c-0.2089 0-0.38369 0.075616-0.52539 0.22852-0.1418 0.1511-0.23007 0.36457-0.26367 0.63867h1.5156v-0.039063c-0.015-0.263-0.084037-0.46773-0.21094-0.61133-0.1268-0.1455-0.29922-0.2168-0.51562-0.2168zm-4.6016 0.013672c-0.2518 0-0.45 0.097069-0.5918 0.29297-0.1417 0.1958-0.21289 0.4869-0.21289 0.87109 0 0.3413 0.071037 0.60889 0.21094 0.80469 0.1399 0.194 0.33609 0.29102 0.58789 0.29102 0.3264 0 0.56575-0.14881 0.71875-0.44531v-1.3809c-0.1586-0.2891-0.39579-0.43359-0.71289-0.43359zm14.26 1.1738c-0.6342 0-0.95117 0.18554-0.95117 0.55664 0 0.1623 0.05391 0.28946 0.16211 0.38086 0.1082 0.091399 0.24632 0.13672 0.41602 0.13672 0.1623 0 0.31739-0.041 0.46289-0.125 0.1455-0.0839 0.25111-0.19382 0.31641-0.32812v-0.62109h-0.40625z" fill="#575757"/></svg>
