<?xml version="1.0" encoding="UTF-8"?>
<svg width="40" height="28" fill="none" version="1.1" viewBox="0 0 40 28" xmlns="http://www.w3.org/2000/svg"><path d="m1.147 15.72c-0.6335 0-1.147-0.5007-1.147-1.1182v-2.2452c0-0.4229 0.23056-0.8101 0.61597-1.0351l18.68-11.135c0.4353-0.25373 0.9945-0.24947 1.4252 0.011703l18.683 11.132c0.3733 0.2271 0.5959 0.6096 0.5959 1.0234v2.2474c0 0.6175-0.5136 1.1181-1.147 1.1181-0.6335 0-1.1471-0.5006-1.1471-1.1181v-1.7585l-17.718-10.546-17.693 10.558v1.7463c0 0.6175-0.51356 1.1182-1.1471 1.1182z" fill="url(#paint0_linear)"/><path d="m6.8364 23.198v-9.706c0-0.3672 0.11506-0.6731 0.34525-0.9179 0.23013-0.2447 0.53354-0.3671 0.91013-0.3671 0.36614 0 0.66691 0.1249 0.90232 0.3747 0.23535 0.2499 0.35306 0.5533 0.35306 0.9103v2.9294c0.28769-0.2295 0.54921-0.3927 0.78461-0.4896 0.3452-0.1376 0.7741-0.2064 1.2868-0.2064 1.0932 0 2.0112 0.4308 2.754 1.2925 0.748 0.8618 1.122 1.9147 1.122 3.1589 0 1.2544-0.374 2.3125-1.122 3.1742-0.7428 0.8617-1.6608 1.2926-2.754 1.2926-0.4917 0-0.9023-0.0688-1.2319-0.2065-0.32428-0.1326-0.63027-0.3773-0.91796-0.7343-0.10462 0.2193-0.2563 0.4054-0.4551 0.5584-0.19351 0.1478-0.43414 0.2218-0.72183 0.2218-0.36614 0-0.66692-0.1198-0.90233-0.3595-0.23535-0.2397-0.35305-0.5481-0.35305-0.9255zm2.5108-3.0212c0 0.6068 0.15167 1.1091 0.45509 1.5068 0.30862 0.3977 0.72972 0.5966 1.2632 0.5966s0.952-0.2014 1.2553-0.6042c0.3087-0.4029 0.463-0.9026 0.463-1.4992s-0.1439-1.081-0.4316-1.4532c-0.319-0.4182-0.748-0.6272-1.2867-0.6272-0.5335 0-0.9546 0.1989-1.2632 0.5966-0.30342 0.3926-0.45509 0.8872-0.45509 1.4838zm6.3475 0c0-1.2645 0.3897-2.3226 1.1691-3.1741 0.7846-0.8516 1.802-1.2773 3.0521-1.2773 1.2554 0 2.2728 0.4232 3.0522 1.2696 0.7846 0.8464 1.1769 1.9071 1.1769 3.1818 0 1.2646-0.3923 2.3252-1.1769 3.1818-0.7794 0.8567-1.7968 1.285-3.0522 1.285s-2.2728-0.4258-3.0521-1.2773c-0.7794-0.8516-1.1691-1.9147-1.1691-3.1895zm2.5029 0c0 0.6068 0.1517 1.1091 0.4551 1.5068 0.3086 0.3977 0.7297 0.5966 1.2632 0.5966 0.5336 0 0.9546-0.2014 1.2633-0.6042 0.3085-0.4029 0.4629-0.9026 0.4629-1.4992s-0.1465-1.081-0.4394-1.4532c-0.3191-0.4182-0.748-0.6272-1.2868-0.6272-0.5335 0-0.9546 0.1989-1.2632 0.5966-0.3034 0.3926-0.4551 0.8872-0.4551 1.4838zm6.5672 6.4401v-9.4613c0-0.3569 0.1151-0.6578 0.3453-0.9025 0.2301-0.2448 0.5335-0.3671 0.9101-0.3671 0.2668 0 0.5048 0.079 0.714 0.2371 0.2093 0.1529 0.3609 0.3339 0.4551 0.543 0.5231-0.6272 1.2423-0.9407 2.1577-0.9407 1.0932 0 2.0112 0.4308 2.7539 1.2925 0.7428 0.8618 1.1142 1.9147 1.1142 3.1589 0 1.2544-0.3714 2.3125-1.1142 3.1742-0.7427 0.8617-1.6607 1.2926-2.7539 1.2926-0.5022 0-0.9049-0.0612-1.2084-0.1836-0.2981-0.1172-0.5858-0.2855-0.863-0.5048v2.6617c0 0.3672-0.1151 0.6731-0.3452 0.9179-0.2302 0.2447-0.5336 0.3671-0.9102 0.3671-0.3662 0-0.6669-0.1198-0.9023-0.3595-0.2354-0.2396-0.3531-0.5481-0.3531-0.9255zm2.5108-6.4401c0 0.6068 0.1517 1.1091 0.4551 1.5068 0.3033 0.3977 0.7244 0.5966 1.2632 0.5966 0.5335 0 0.952-0.2014 1.2554-0.6042 0.3086-0.4029 0.4629-0.9026 0.4629-1.4992s-0.1438-1.081-0.4315-1.4532c-0.3191-0.4182-0.748-0.6272-1.2868-0.6272-0.5335 0-0.9546 0.1989-1.2632 0.5966-0.3034 0.3926-0.4551 0.8872-0.4551 1.4838z" fill="url(#paint1_linear)"/><defs><linearGradient id="paint0_linear" x1="1.1815" x2="38.912" y1="7.8051" y2="8.0968" gradientUnits="userSpaceOnUse"><stop stop-color="#26F5D0" offset="0"/><stop stop-color="#0173B4" offset="1"/></linearGradient><linearGradient id="paint1_linear" x1="20.172" x2="20.172" y1="16.643" y2="25.231" gradientUnits="userSpaceOnUse"><stop stop-color="#26F5D0" offset="0"/><stop stop-color="#0073B4" offset="1"/></linearGradient></defs></svg>
