<?xml version="1.0" encoding="UTF-8"?>
<svg width="92" height="75" fill="none" version="1.1" viewBox="0 0 92 75" xmlns="http://www.w3.org/2000/svg"><path d="m2.6382 36.844c-1.457 0-2.6382-1.1734-2.6382-2.6207v-5.2622c0-0.9911 0.53028-1.8987 1.4167-2.4261l42.963-26.096c1.0011-0.59468 2.2873-0.5847 3.2779 0.027429l42.971 26.09c0.8586 0.5324 1.3705 1.4289 1.3705 2.3987v5.2672c0 1.4474-1.1812 2.6207-2.6382 2.6207-1.4571 0-2.6383-1.1733-2.6383-2.6207v-4.1214l-40.752-24.716-40.695 24.746v4.0929c0 1.4473-1.1812 2.6207-2.6382 2.6207z" fill="url(#paint0_linear)"/><path d="m13.13 70.239c0-0.1193 0.0321-0.2164 0.0963-0.2913 0.0671-0.0778 0.1718-0.1166 0.3142-0.1166h0.4357l0.1383-1.0236h-0.3268c-0.1369 0-0.2402-0.039-0.3101-0.1166-0.0669-0.0805-0.1004-0.1803-0.1004-0.2996s0.0321-0.2178 0.0964-0.2955c0.0669-0.0777 0.1717-0.1165 0.3141-0.1165h0.4567l0.18-1.3358c0.0168-0.1415 0.0588-0.2511 0.1257-0.3289 0.0698-0.0776 0.1886-0.1164 0.3561-0.1164 0.1089 0 0.1997 0.0319 0.2723 0.0957 0.0754 0.061 0.1131 0.1456 0.1131 0.2539l-0.0335 0.3078-0.1549 1.1237h0.7708l0.18-1.3358c0.0168-0.1415 0.0588-0.2511 0.1258-0.3289 0.0699-0.0776 0.1885-0.1164 0.356-0.1164 0.109 0 0.1997 0.0319 0.2723 0.0957 0.0755 0.061 0.1131 0.1456 0.1131 0.2539l-0.0335 0.3078-0.1549 1.1237h0.3268c0.1367 0 0.2387 0.0401 0.3058 0.1207 0.0698 0.0805 0.1047 0.1775 0.1047 0.2913 0 0.1193-0.028 0.2122-0.0838 0.2788-0.0754 0.0915-0.1843 0.1374-0.3267 0.1374h-0.44l-0.1382 1.0236h0.3267c0.1369 0 0.2403 0.0403 0.3101 0.1208 0.0698 0.0776 0.1046 0.1733 0.1046 0.2871 0 0.1192-0.0293 0.2136-0.0879 0.283-0.0753 0.0915-0.1844 0.1359-0.3268 0.1331h-0.4523l-0.1802 1.3317c-0.0112 0.1359-0.0531 0.2442-0.1257 0.3246-0.0725 0.0777-0.1913 0.1165-0.3561 0.1165-0.1089 0-0.201-0.0305-0.2765-0.0915-0.0726-0.0639-0.1089-0.1499-0.1089-0.258l0.0335-0.3038 0.155-1.1195h-0.7709l-0.18 1.3317c-0.0112 0.1359-0.0531 0.2442-0.1257 0.3246-0.0727 0.0777-0.1913 0.1165-0.3561 0.1165-0.1089 0-0.2011-0.0305-0.2765-0.0915-0.0726-0.0639-0.1089-0.1499-0.1089-0.258l0.0335-0.3038 0.155-1.1195h-0.3268c-0.1368 0-0.2401-0.0388-0.31-0.1165-0.067-0.0805-0.1005-0.1804-0.1005-0.2996zm1.7134-0.4079h0.7834l0.1341-1.0236h-0.7793l-0.1382 1.0236zm3.0204 1.8977v-5.2809c0-0.1997 0.0615-0.3663 0.1844-0.4995 0.1229-0.1331 0.2849-0.1997 0.486-0.1997 0.1955 0 0.356 0.068 0.4817 0.2039 0.1257 0.136 0.1886 0.3011 0.1886 0.4953v1.5938c0.1535-0.1248 0.2931-0.2137 0.4188-0.2664 0.1844-0.0749 0.4134-0.1122 0.6872-0.1122 0.5836 0 1.0737 0.2343 1.4704 0.7032 0.3993 0.4688 0.599 1.0417 0.599 1.7187 0 0.6824-0.1997 1.2582-0.599 1.7271-0.3967 0.4687-0.8868 0.7031-1.4704 0.7031-0.2626 0-0.4818-0.0373-0.6578-0.1123-0.1731-0.0721-0.3366-0.2052-0.4902-0.3994-0.0558 0.1192-0.1369 0.2205-0.243 0.3037-0.1032 0.0805-0.2318 0.1207-0.3853 0.1207-0.1956 0-0.3561-0.0651-0.4818-0.1956-0.1258-0.1303-0.1886-0.2982-0.1886-0.5035zm1.3407-1.6438c0 0.3301 0.0809 0.6034 0.2428 0.8198 0.1649 0.2164 0.3897 0.3246 0.6745 0.3246 0.285 0 0.5083-0.1097 0.6703-0.3288 0.1649-0.2192 0.2472-0.491 0.2472-0.8156s-0.0768-0.5881-0.2304-0.7907c-0.1703-0.2275-0.3993-0.3413-0.6871-0.3413-0.2848 0-0.5096 0.1083-0.6745 0.3247-0.1619 0.2136-0.2428 0.4827-0.2428 0.8073zm3.4394 0c0-0.677 0.1982-1.2499 0.5949-1.7187 0.3992-0.4689 0.8908-0.7032 1.4745-0.7032 0.2625 0 0.4804 0.0373 0.6536 0.1122 0.1759 0.075 0.3407 0.2081 0.4943 0.3995 0.0558-0.1192 0.1299-0.2149 0.222-0.2871 0.1145-0.0915 0.25-0.1373 0.4064-0.1373 0.1955 0 0.3547 0.0652 0.4776 0.1956 0.1256 0.1304 0.1885 0.2954 0.1885 0.4953v3.2875c0 0.1997-0.0615 0.3662-0.1844 0.4993-0.1229 0.1332-0.2834 0.1998-0.4817 0.1998-0.1425 0-0.2709-0.0417-0.3854-0.1248-0.1118-0.086-0.1927-0.1859-0.243-0.2996-0.2793 0.3412-0.6619 0.5117-1.1479 0.5117-0.578 0-1.0683-0.2357-1.4705-0.7073-0.3992-0.4717-0.5989-1.046-0.5989-1.7229zm1.3405 0c0 0.3301 0.081 0.6034 0.243 0.8198 0.1619 0.2164 0.3867 0.3246 0.6745 0.3246 0.2848 0 0.5083-0.1097 0.6702-0.3288 0.1648-0.2192 0.2471-0.491 0.2471-0.8156s-0.0766-0.5881-0.2303-0.7907c-0.1704-0.2275-0.3994-0.3413-0.687-0.3413-0.2849 0-0.5098 0.1083-0.6745 0.3247-0.162 0.2136-0.243 0.4827-0.243 0.8073zm3.5442 1.6438v-3.2875c0-0.1944 0.0613-0.358 0.1842-0.4912 0.1229-0.1331 0.2849-0.1997 0.486-0.1997 0.1648 0 0.31 0.0458 0.4357 0.1373 0.1033 0.075 0.1815 0.1707 0.2346 0.2871 0.2178-0.3412 0.6004-0.5117 1.1478-0.5117 0.4916 0 0.884 0.1261 1.1773 0.3786 0.3267 0.2775 0.4886 0.6769 0.4858 1.1985v2.4886c0 0.1997-0.0613 0.3662-0.1842 0.4993-0.1229 0.1332-0.2835 0.1998-0.4818 0.1998-0.1955 0-0.3561-0.0651-0.4818-0.1956-0.1256-0.1303-0.1885-0.2982-0.1885-0.5035v-2.1224c0-0.2385-0.0642-0.4327-0.1927-0.5826s-0.31-0.2247-0.5446-0.2247c-0.2234 0-0.4022 0.0748-0.5363 0.2247-0.1339 0.1499-0.201 0.3441-0.201 0.5826v2.1224c0 0.1997-0.0628 0.3662-0.1885 0.4993-0.1229 0.1332-0.2835 0.1998-0.4818 0.1998-0.1955 0-0.3561-0.0651-0.4817-0.1956-0.1257-0.1303-0.1885-0.2982-0.1885-0.5035zm4.7882 0v-5.2809c0-0.1997 0.0615-0.3663 0.1844-0.4995 0.1256-0.1331 0.2876-0.1997 0.486-0.1997 0.1955 0 0.356 0.068 0.4816 0.2039 0.1258 0.136 0.1887 0.3011 0.1887 0.4953v2.8547l1.0892-1.0903c0.1647-0.1636 0.2793-0.269 0.3434-0.3162 0.1314-0.0972 0.2681-0.1457 0.4107-0.1457 0.1954 0 0.3532 0.0597 0.4733 0.179s0.1802 0.2635 0.1802 0.4328c0 0.1358-0.0601 0.2732-0.1802 0.412-0.0335 0.0388-0.1312 0.1372-0.2933 0.2954l-0.7206 0.7158 1.127 1.4315c0.0921 0.1138 0.1606 0.2081 0.2053 0.283 0.0726 0.1138 0.1088 0.2136 0.1088 0.2996 0 0.1581-0.0516 0.2968-0.1549 0.4161-0.1257 0.1415-0.2933 0.2123-0.5028 0.2123-0.1592 0-0.2848-0.0278-0.377-0.0832-0.0921-0.0583-0.2094-0.1803-0.3519-0.3663l-1.3405-1.7644-0.0167 1.5148c0 0.1997-0.0616 0.3662-0.1844 0.4993-0.1229 0.1332-0.2849 0.1998-0.4859 0.1998-0.1956 0-0.3561-0.0651-0.4818-0.1956-0.1257-0.1303-0.1886-0.2982-0.1886-0.5035zm4.3695-1.6438c0-0.688 0.208-1.2638 0.6242-1.727 0.4188-0.4634 0.9621-0.6949 1.6296-0.6949 0.6703 0 1.2135 0.2302 1.6296 0.6907 0.419 0.4605 0.6285 1.0375 0.6285 1.7312 0 0.6881-0.2095 1.2651-0.6285 1.7311-0.4161 0.4662-0.9593 0.6991-1.6296 0.6991-0.6702 0-1.2135-0.2315-1.6296-0.6949-0.4162-0.4632-0.6242-1.0417-0.6242-1.7353zm1.3363 0c0 0.3301 0.0811 0.6034 0.243 0.8198 0.1648 0.2164 0.3896 0.3246 0.6745 0.3246s0.5097-0.1097 0.6745-0.3288c0.1647-0.2192 0.2471-0.491 0.2471-0.8156s-0.0781-0.5881-0.2345-0.7907c-0.1704-0.2275-0.3995-0.3413-0.6871-0.3413-0.2849 0-0.5097 0.1083-0.6745 0.3247-0.1619 0.2136-0.243 0.4827-0.243 0.8073zm3.4394-1.6688c0-0.2108 0.0601-0.3662 0.1802-0.4661 0.1201-0.0998 0.2946-0.1497 0.5236-0.1497h0.155v-0.6035c0-0.4161 0.1298-0.7615 0.3896-1.0362s0.5921-0.412 0.9971-0.412c0.2513 0 0.4525 0.0388 0.6032 0.1166 0.1927 0.0998 0.2891 0.2649 0.2891 0.4951 0 0.4218-0.2108 0.6327-0.6325 0.6327-0.1091 0-0.1887 0.0318-0.2388 0.0957-0.0475 0.0609-0.0713 0.1733-0.0713 0.3369v0.3747h0.3687c0.2234 0 0.3966 0.0499 0.5195 0.1497 0.1229 0.0999 0.1843 0.2553 0.1843 0.4661s-0.0629 0.3677-0.1885 0.4703c-0.1257 0.0998-0.2975 0.1498-0.5153 0.1498h-0.3687v2.6925c0 0.1997-0.0614 0.3662-0.1843 0.4993-0.1228 0.1332-0.2849 0.1998-0.486 0.1998-0.1954 0-0.3561-0.0651-0.4817-0.1956-0.1229-0.1303-0.1844-0.2982-0.1844-0.5035v-2.6925h-0.155c-0.2235 0-0.3965-0.0485-0.5194-0.1457-0.1229-0.0998-0.1844-0.2579-0.1844-0.4744zm3.6028 5.1728v-5.1477c0-0.1944 0.0615-0.358 0.1844-0.4912 0.1229-0.1331 0.2848-0.1997 0.4859-0.1997 0.1424 0 0.2695 0.043 0.3812 0.129 0.1118 0.0833 0.1927 0.1817 0.243 0.2954 0.2793-0.3412 0.6632-0.5117 1.152-0.5117 0.5837 0 1.0739 0.2343 1.4704 0.7032 0.3967 0.4688 0.5949 1.0417 0.5949 1.7187 0 0.6824-0.1982 1.2582-0.5949 1.7271-0.3965 0.4687-0.8867 0.7031-1.4704 0.7031-0.2681 0-0.4831-0.0333-0.645-0.0997-0.1594-0.0639-0.3129-0.1554-0.461-0.2747v1.4482c0 0.1997-0.0613 0.3662-0.1842 0.4993-0.1229 0.1332-0.2849 0.1998-0.486 0.1998-0.1955 0-0.3562-0.0652-0.4818-0.1956-0.1257-0.1304-0.1885-0.2982-0.1885-0.5035zm1.3405-3.504c0 0.3301 0.0811 0.6034 0.243 0.8198 0.162 0.2164 0.3869 0.3246 0.6745 0.3246 0.2849 0 0.5083-0.1097 0.6703-0.3288 0.1647-0.2192 0.2472-0.491 0.2472-0.8156s-0.0768-0.5881-0.2304-0.7907c-0.1705-0.2275-0.3995-0.3413-0.6871-0.3413-0.2848 0-0.5096 0.1083-0.6745 0.3247-0.1619 0.2136-0.243 0.4827-0.243 0.8073zm3.6573 1.6438v-3.2875c0-0.1944 0.0614-0.358 0.1843-0.4912 0.1229-0.1331 0.2835-0.1997 0.4818-0.1997 0.1648 0 0.3113 0.0458 0.4399 0.1373 0.1034 0.075 0.18 0.1707 0.2303 0.2871 0.1314-0.1525 0.2653-0.2718 0.4022-0.3578 0.1649-0.1027 0.3394-0.1554 0.5238-0.1581 0.1842 0 0.3449 0.0666 0.4816 0.1997 0.1369 0.1332 0.2054 0.2983 0.2054 0.4952 0 0.2163-0.0768 0.3787-0.2305 0.4868-0.0978 0.0694-0.2988 0.1485-0.6032 0.2374-0.3016 0.0858-0.507 0.1955-0.6159 0.3287-0.1088 0.1331-0.1634 0.362-0.1634 0.6867v1.6354c0 0.1997-0.0613 0.3662-0.1842 0.4993-0.1229 0.1332-0.2849 0.1998-0.486 0.1998-0.1955 0-0.3561-0.0651-0.4818-0.1956-0.1229-0.1303-0.1843-0.2982-0.1843-0.5035zm3.1293-1.6438c0-0.688 0.2082-1.2638 0.6242-1.727 0.419-0.4634 0.9623-0.6949 1.6298-0.6949 0.6702 0 1.2134 0.2302 1.6296 0.6907 0.4189 0.4605 0.6283 1.0375 0.6283 1.7312 0 0.6881-0.2094 1.2651-0.6283 1.7311-0.4162 0.4662-0.9594 0.6991-1.6296 0.6991-0.6704 0-1.2136-0.2315-1.6298-0.6949-0.416-0.4632-0.6242-1.0417-0.6242-1.7353zm1.3365 0c0 0.3301 0.0809 0.6034 0.243 0.8198 0.1647 0.2164 0.3895 0.3246 0.6745 0.3246 0.2848 0 0.5096-0.1097 0.6743-0.3288 0.1649-0.2192 0.2473-0.491 0.2473-0.8156s-0.0783-0.5881-0.2346-0.7907c-0.1704-0.2275-0.3994-0.3413-0.687-0.3413-0.285 0-0.5098 0.1083-0.6745 0.3247-0.1621 0.2136-0.243 0.4827-0.243 0.8073zm3.498 0c0-0.677 0.1984-1.2499 0.5949-1.7187 0.3994-0.4689 0.8909-0.7032 1.4746-0.7032 0.2681 0 0.493 0.0373 0.6745 0.1122 0.1369 0.0556 0.2806 0.1444 0.4315 0.2664v-1.5938c0-0.1997 0.0614-0.3663 0.1842-0.4995 0.1229-0.1331 0.285-0.1997 0.4861-0.1997 0.1954 0 0.3546 0.068 0.4775 0.2039 0.1257 0.136 0.1885 0.3011 0.1885 0.4953v5.2809c0 0.1997-0.0614 0.3662-0.1843 0.4993-0.1229 0.1332-0.2835 0.1998-0.4817 0.1998-0.1425 0-0.2709-0.0417-0.3855-0.1248-0.1116-0.086-0.1927-0.1859-0.243-0.2996-0.2793 0.3412-0.6618 0.5117-1.1478 0.5117-0.5781 0-1.0682-0.2357-1.4704-0.7073-0.3994-0.4717-0.5991-1.046-0.5991-1.7229zm1.3406 0c0 0.3301 0.0809 0.6034 0.2429 0.8198 0.1621 0.2164 0.3869 0.3246 0.6745 0.3246 0.2848 0 0.5083-0.1097 0.6703-0.3288 0.1648-0.2192 0.2472-0.491 0.2472-0.8156s-0.0768-0.5881-0.2305-0.7907c-0.1702-0.2275-0.3993-0.3413-0.687-0.3413-0.2848 0-0.5096 0.1083-0.6745 0.3247-0.162 0.2136-0.2429 0.4827-0.2429 0.8073zm3.5441 0.8531v-2.4886c0-0.1997 0.0615-0.3662 0.1844-0.4994 0.1229-0.1331 0.2848-0.1997 0.4858-0.1997 0.1955 0 0.3562 0.0652 0.4818 0.1956 0.1257 0.1304 0.1885 0.2982 0.1885 0.5035v2.1224c0 0.2385 0.0643 0.4327 0.1927 0.5826 0.1286 0.1499 0.3101 0.2247 0.5446 0.2247 0.2235 0 0.4022-0.0748 0.5363-0.2247 0.134-0.1499 0.201-0.3441 0.201-0.5826v-2.1224c0-0.1997 0.0616-0.3662 0.1844-0.4994 0.1229-0.1331 0.2849-0.1997 0.4859-0.1997 0.1956 0 0.3548 0.0652 0.4777 0.1956 0.1257 0.1304 0.1885 0.2982 0.1885 0.5035v3.2876c0 0.1941-0.0615 0.3579-0.1844 0.491-0.1229 0.1332-0.2834 0.1998-0.4818 0.1998-0.1647 0-0.3114-0.0444-0.4398-0.1332-0.1033-0.0749-0.1802-0.172-0.2305-0.2912-0.2177 0.3412-0.6017 0.5117-1.152 0.5117-0.4915 0-0.8825-0.1248-1.1729-0.3744-0.3268-0.2775-0.4902-0.6783-0.4902-1.2027zm4.516-0.8531c0-0.688 0.2081-1.2638 0.6242-1.727 0.419-0.4634 0.9636-0.6949 1.6339-0.6949 0.3994 0 0.7358 0.0567 1.0096 0.1706 0.3826 0.1581 0.5739 0.3967 0.5739 0.7157 0 0.1831-0.0531 0.3329-0.1592 0.4495-0.1033 0.1164-0.2332 0.1748-0.3896 0.1748-0.0977 0-0.2346-0.0362-0.4105-0.1083-0.176-0.0749-0.3589-0.1124-0.5489-0.1124-0.3211 0-0.5683 0.1083-0.7414 0.3247-0.1704 0.2136-0.2555 0.4827-0.2555 0.8073 0 0.3301 0.0809 0.6034 0.2428 0.8198 0.1649 0.2164 0.3911 0.3246 0.6788 0.3246 0.1954 0 0.3742-0.0249 0.5361-0.0749 0.1621-0.0527 0.3283-0.1082 0.4986-0.1665 0.1481 0 0.2765 0.0624 0.3854 0.1873s0.1634 0.2621 0.1634 0.412c0 0.3024-0.1969 0.541-0.5907 0.7158-0.3211 0.1415-0.6522 0.2121-0.9928 0.2121-0.6703 0-1.2149-0.2315-1.6339-0.6949-0.4161-0.4632-0.6242-1.0417-0.6242-1.7353zm4.1977-1.6688c0-0.2108 0.0601-0.3662 0.1802-0.4661 0.12-0.0998 0.2946-0.1497 0.5236-0.1497h0.155v-0.8782c0-0.1996 0.0615-0.3662 0.1844-0.4993 0.1229-0.1332 0.2848-0.1998 0.4858-0.1998 0.1955 0 0.3547 0.0666 0.4776 0.1998 0.1258 0.1304 0.1886 0.2969 0.1886 0.4993v0.8782h0.3687c0.2233 0 0.3965 0.0499 0.5194 0.1497 0.1229 0.0999 0.1844 0.2553 0.1844 0.4661s-0.0629 0.3677-0.1887 0.4703c-0.1256 0.0998-0.2973 0.1498-0.5151 0.1498h-0.3687v2.6925c0 0.1997-0.0615 0.3662-0.1844 0.4993-0.1229 0.1332-0.2834 0.1998-0.4818 0.1998-0.1954 0-0.3561-0.0651-0.4817-0.1956-0.1257-0.1303-0.1885-0.2982-0.1885-0.5035v-2.6925h-0.155c-0.2235 0-0.3966-0.0485-0.5195-0.1457-0.1229-0.0998-0.1843-0.2579-0.1843-0.4744zm3.5608 3.1711c0-0.1832 0.0545-0.3371 0.1634-0.4619s0.2375-0.1873 0.3855-0.1873c0.0921 0 0.3379 0.0874 0.7373 0.2622 0.1955 0.086 0.3784 0.129 0.5488 0.129 0.1312 0 0.2262-0.0236 0.2849-0.0708 0.0613-0.0499 0.0921-0.1165 0.0921-0.1997 0-0.0972-0.0433-0.1748-0.1299-0.233-0.2961-0.125-0.599-0.2498-0.909-0.3746-0.377-0.1582-0.6368-0.3135-0.7792-0.4662-0.1844-0.1941-0.2765-0.4618-0.2765-0.8031 0-0.4077 0.1522-0.7573 0.4565-1.0486 0.3269-0.3135 0.75-0.4702 1.2694-0.4702 0.3436 0 0.6662 0.0721 0.9678 0.2163 0.3825 0.1831 0.5752 0.4301 0.5781 0.7407 0 0.1693-0.0517 0.3052-0.1551 0.4079-0.1033 0.1027-0.2387 0.1539-0.4062 0.1539-0.0503 0-0.2556-0.0735-0.6159-0.2205-0.1843-0.0749-0.3366-0.1124-0.4566-0.1124-0.1033 0-0.1886 0.0236-0.2555 0.0707-0.0643 0.0445-0.0964 0.1153-0.0964 0.2123 0 0.1248 0.1801 0.2553 0.5404 0.3913 0.4971 0.1885 0.8322 0.3426 1.0054 0.4617 0.3659 0.2553 0.5488 0.5952 0.5488 1.0196 0 0.455-0.1676 0.8212-0.5027 1.0987-0.3324 0.2747-0.7359 0.4119-1.2107 0.4119-0.4637 0-0.8672-0.0803-1.2108-0.2412-0.3825-0.1748-0.5739-0.4037-0.5739-0.6867z" fill="#858080"/><defs><linearGradient id="paint0_linear" x1="2.7176" x2="89.498" y1="18.293" y2="18.952" gradientUnits="userSpaceOnUse"><stop stop-color="#26F5D0" offset="0"/><stop stop-color="#0173B4" offset="1"/></linearGradient><linearGradient id="a" x1="46.396" x2="46.396" y1="39.008" y2="59.135" gradientUnits="userSpaceOnUse"><stop stop-color="#26F5D0" offset="0"/><stop stop-color="#0073B4" offset="1"/></linearGradient></defs><path d="m15.724 54.371v-22.749c0-0.8606 0.2647-1.5775 0.7941-2.1512 0.5293-0.5736 1.2271-0.8605 2.0933-0.8605 0.8421 0 1.5339 0.2928 2.0753 0.8783 0.5414 0.5856 0.8121 1.2968 0.8121 2.1334v6.8657c0.6617-0.5377 1.2632-0.9202 1.8046-1.1473 0.7939-0.3226 1.7805-0.4839 2.9596-0.4839 2.5143 0 4.6257 1.0097 6.3341 3.0295 1.7204 2.0197 2.5806 4.4875 2.5806 7.4036 0 2.94-0.8602 5.4198-2.5806 7.4394-1.7084 2.0198-3.8198 3.0297-6.3341 3.0297-1.131 0-2.0754-0.1614-2.8333-0.4841-0.7459-0.3106-1.4497-0.8843-2.1114-1.721-0.2406 0.514-0.5895 0.9501-1.0467 1.3087-0.4451 0.3466-0.9985 0.5199-1.6602 0.5199-0.8421 0-1.5339-0.2808-2.0754-0.8425-0.5413-0.5618-0.812-1.2848-0.812-2.1691zm5.7748-7.081c0 1.4221 0.3488 2.5993 1.0467 3.5316 0.7097 0.9321 1.6783 1.3982 2.9053 1.3982 1.2272 0 2.1897-0.4721 2.8874-1.4162 0.7098-0.9442 1.0648-2.1153 1.0648-3.5136 0-1.3982-0.3309-2.5336-0.9926-3.4061-0.7339-0.9799-1.7204-1.4699-2.9596-1.4699-1.227 0-2.1956 0.4661-2.9053 1.3983-0.6979 0.9202-1.0467 2.0795-1.0467 3.4777zm14.599 0c0-2.9638 0.8964-5.4437 2.689-7.4394 1.8045-1.9959 4.1445-2.9937 7.0198-2.9937 2.8874 0 5.2274 0.9919 7.02 2.9757 1.8046 1.9839 2.707 4.4697 2.707 7.4574 0 2.9638-0.9024 5.4496-2.707 7.4574-1.7926 2.0077-4.1326 3.0117-7.02 3.0117-2.8873 0-5.2273-0.998-7.0198-2.9937-1.7926-1.9959-2.689-4.4877-2.689-7.4754zm5.7568 0c0 1.4221 0.3489 2.5993 1.0466 3.5316 0.7098 0.9321 1.6783 1.3982 2.9054 1.3982 1.2272 0 2.1956-0.4721 2.9055-1.4162 0.7097-0.9442 1.0647-2.1153 1.0647-3.5136 0-1.3982-0.3369-2.5336-1.0106-3.4061-0.7339-0.9799-1.7204-1.4699-2.9596-1.4699-1.2271 0-2.1956 0.4661-2.9054 1.3983-0.6977 0.9202-1.0466 2.0795-1.0466 3.4777zm15.104 15.094v-22.175c0-0.8366 0.2648-1.5417 0.7941-2.1154 0.5293-0.5736 1.2271-0.8604 2.0933-0.8604 0.6136 0 1.161 0.1853 1.6422 0.5557 0.4813 0.3585 0.8302 0.7828 1.0466 1.2728 1.2032-1.47 2.8574-2.2049 4.9627-2.2049 2.5145 0 4.6259 1.0097 6.3342 3.0295 1.7084 2.0197 2.5625 4.4875 2.5625 7.4036 0 2.94-0.8541 5.4198-2.5625 7.4394-1.7083 2.0198-3.8197 3.0297-6.3342 3.0297-1.1549 0-2.0812-0.1435-2.7791-0.4304-0.6857-0.2748-1.3474-0.6692-1.9851-1.1831v6.2384c0 0.8606-0.2646 1.5775-0.7939 2.1512-0.5294 0.5736-1.2272 0.8605-2.0934 0.8605-0.8422 0-1.5339-0.2809-2.0752-0.8426-0.5415-0.5617-0.8122-1.2847-0.8122-2.1691zm5.7747-15.094c0 1.4221 0.349 2.5993 1.0468 3.5316 0.6977 0.9321 1.6663 1.3982 2.9054 1.3982 1.2272 0 2.1895-0.4721 2.8874-1.4162 0.7097-0.9442 1.0647-2.1153 1.0647-3.5136 0-1.3982-0.3308-2.5336-0.9925-3.4061-0.7339-0.9799-1.7204-1.4699-2.9596-1.4699-1.2271 0-2.1956 0.4661-2.9054 1.3983-0.6978 0.9202-1.0468 2.0795-1.0468 3.4777z" fill="url(#a)"/></svg>
