<?xml version="1.0" encoding="UTF-8"?>
<svg width="20" height="20" version="1.1" viewBox="0 0 20 20" xmlns="http://www.w3.org/2000/svg"><path d="m10 0c-2.7555-6.1233e-8 -5 2.2445-5 5s2.2445 5 5 5c2.7555 0 5-2.2445 5-5s-2.2445-5-5-5zm0 1c2.2151-5e-8 4 1.7849 4 4s-1.7849 4-4 4c-2.2151 0-4-1.7849-4-4s1.7849-4 4-4zm-0.99805 10c-4.7802 0-8.6973 3.7496-8.9707 8.4707l-0.03125 0.5293h0.5293 19.471l-0.03125-0.5293c-0.2734-4.7211-4.1905-8.4707-8.9707-8.4707h-1.9961zm0 1h1.9961c4.0672 0 7.3335 3.066 7.8379 7h-17.672c0.50441-3.934 3.7707-7 7.8379-7z"/></svg>
