<?xml version="1.0" encoding="UTF-8"?>
<svg width="12" height="12" version="1.1" viewBox="0 0 12 12" xmlns="http://www.w3.org/2000/svg"><path d="m8.248 0c-0.61856 0.024742-1.3593 0.40815-1.8047 0.92773-0.38351 0.44537-0.75522 1.1744-0.65625 1.9043 0 0.04948 0.048828 0.087891 0.085938 0.087891h0.125c0.60619 0 1.2617-0.33458 1.707-0.87891 0.4701-0.56907 0.70509-1.2994 0.63086-1.9551 0-0.049485-0.038401-0.085938-0.087891-0.085938zm-0.19727 2.834c-0.51959 0-1.0026 0.19725-1.3984 0.3457-0.28453 0.12371-0.51887 0.22266-0.67969 0.22266-0.18557 0-0.4212-0.098296-0.69336-0.19727-0.35877-0.14845-0.77925-0.32227-1.2246-0.32227h-0.037109c-1.0144 0.02474-1.9798 0.60537-2.5117 1.5332-1.0144 1.7567-0.36991 4.4302 0.75586 6.0508 0.5567 0.8041 1.1249 1.5332 1.9043 1.5332h0.048828c0.35876-0.0124 0.63149-0.12308 0.87891-0.23438 0.28453-0.1237 0.58262-0.24805 1.0527-0.24805 0.44536 0 0.71611 0.12308 0.98828 0.23438 0.27216 0.1113 0.54488 0.23496 0.95312 0.22266 0.87835-0.0124 1.4107-0.80329 1.8809-1.4961 0.49484-0.71756 0.74152-1.4231 0.82812-1.6953v-0.011719c0.01237-0.04948-0.011718-0.10026-0.048828-0.125h-0.013672c-0.14846-0.06185-1.5091-0.66779-1.5215-2.3008-0.01237-1.3237 1.0143-2.0286 1.2246-2.1523h0.013672c0.02474-0.01237 0.037109-0.035807 0.037109-0.060547 0-0.02475-0.001302-0.049479-0.013672-0.074219-0.70515-1.0392-1.7936-1.1882-2.2266-1.2129-0.06186-0.01237-0.12304-0.011719-0.19727-0.011719z"/></svg>
