<?xml version="1.0" encoding="UTF-8"?>
<svg width="9" height="19" version="1.1" viewBox="0 0 9 19" xmlns="http://www.w3.org/2000/svg"><path d="m4.5 0c-2.5106 0-4.5 2.394-4.5 5v5.5a0.49999 0.49999 0 0 0 0.5 0.5 0.49999 0.49999 0 0 0 0.5-0.5v-5.5c0-2.0897 1.647-4 3.5-4s3.5 1.9103 3.5 4v10.5c0 1.4507-1.1663 2.5-2.5 2.5s-2.5-1.0493-2.5-2.5v-10c0-0.79696 0.77788-1.5 1.5-1.5s1.5 0.70304 1.5 1.5v5a0.49999 0.49999 0 0 0 0.5 0.5 0.49999 0.49999 0 0 0 0.5-0.5v-5c0-1.3944-1.1858-2.5-2.5-2.5s-2.5 1.1056-2.5 2.5v10c0 1.9928 1.6337 3.5 3.5 3.5s3.5-1.5072 3.5-3.5v-10.5c0-2.606-1.9894-5-4.5-5z"/></svg>
