<?xml version="1.0" encoding="UTF-8"?>
<svg width="60" height="60" version="1.1" viewBox="0 0 60 60" xmlns="http://www.w3.org/2000/svg"><path d="m51.809 1a1.5002 1.5002 0 0 0-1.0195 0.43945l-6.3477 6.3477a1.5002 1.5002 0 0 0-0.41992 1.293l0.60352 3.8437-4.3086 4.3086c-3.3205-2.8373-7.6173-4.5625-12.316-4.5625-10.476 0-19 8.5243-19 19s8.5243 19 19 19 19-8.5243 19-19c0-4.6991-1.7252-8.9959-4.5625-12.316l4.3086-4.3086 3.8438 0.60352a1.5002 1.5002 0 0 0 1.293-0.41992l6.3477-6.3477a1.5002 1.5002 0 0 0-0.82617-2.543l-3.5195-0.55273-0.55274-3.5176a1.5002 1.5002 0 0 0-1.5234-1.2676zm-0.98242 4.6445 0.26562 1.6855a1.5002 1.5002 0 0 0 1.248 1.248l1.6855 0.26562-3.7227 3.7227-2.7656-0.43359-0.43359-2.7656 1.6543-1.6523 2.0684-2.0703zm-22.826 0.025391c-14.323 0-26 11.677-26 26s11.677 26 26 26 26-11.677 26-26c0-5.1246-1.515-9.8905-4.0859-13.92a1.5 1.5 0 0 0-2.0703-0.45703 1.5 1.5 0 0 0-0.45898 2.0703c2.2824 3.5773 3.6152 7.7714 3.6152 12.307 0 12.696-10.304 23-23 23s-23-10.304-23-23 10.304-23 23-23c4.5353 0 8.7294 1.3328 12.307 3.6152a1.5 1.5 0 0 0 2.0703-0.45898 1.5 1.5 0 0 0-0.45703-2.0703c-4.0294-2.571-8.7953-4.0859-13.92-4.0859zm0 10c3.8853 0 7.4411 1.3776 10.209 3.6699l-2.8652 2.8652c-2.0332-1.5821-4.5779-2.5352-7.3438-2.5352-6.6096 0-12 5.3904-12 12s5.3904 12 12 12 12-5.3904 12-12c0-2.7658-0.95301-5.3105-2.5352-7.3438l2.8652-2.8652c2.2923 2.7679 3.6699 6.3237 3.6699 10.209 0 8.8544-7.1456 16-16 16s-16-7.1456-16-16 7.1456-16 16-16zm0 7c1.9497 0 3.7448 0.61959 5.2148 1.6641l-2.9238 2.9238c-0.69077-0.36258-1.4628-0.58789-2.291-0.58789-2.7437 0-5 2.2563-5 5 0 2.7437 2.2563 5 5 5s5-2.2563 5-5c0-0.82825-0.22531-1.6002-0.58789-2.291l2.9238-2.9238c1.0445 1.4701 1.6641 3.2652 1.6641 5.2148 0 4.9883-4.0117 9-9 9s-9-4.0117-9-9 4.0117-9 9-9zm-0.13477 7.0137-0.92578 0.92578a1.5 1.5 0 0 0 0 2.1211 1.5 1.5 0 0 0 2.1211 0l0.92578-0.92578c-0.068453 1.0556-0.91036 1.8652-1.9863 1.8652-1.1223 0-2-0.87769-2-2 0-1.076 0.80967-1.9179 1.8652-1.9863z"/></svg>
