<?xml version="1.0" encoding="UTF-8"?>
<svg width="60" height="60" version="1.1" viewBox="0 0 60 60" xmlns="http://www.w3.org/2000/svg"><path d="m1.4434 8a1.5 1.5 0 0 0-1.25 0.76367 1.5 1.5 0 0 0 0.57031 2.043l7.2363 4.0703v26.623a1.5002 1.5002 0 0 0 1.5 1.5h4.3184c-0.51648 0.88501-0.81836 1.9084-0.81836 3 0 3.2959 2.7041 6 6 6s6-2.7041 6-6c0-1.0916-0.30188-2.115-0.81836-3h18.637c-0.51648 0.88501-0.81836 1.9084-0.81836 3 0 3.2959 2.7041 6 6 6s6-2.7041 6-6c0-1.0916-0.30188-2.115-0.81836-3h5.3184a1.5 1.5 0 0 0 1.5-1.5 1.5 1.5 0 0 0-1.5-1.5h-5.5v-17.5a1.5002 1.5002 0 0 0-0.005859-0.11719 1.5002 1.5002 0 0 0-0.029297-0.20312 1.5002 1.5002 0 0 0-0.021485-0.085938 1.5002 1.5002 0 0 0-0.003906-0.013672 1.5002 1.5002 0 0 0-0.005859-0.013672 1.5002 1.5002 0 0 0-0.027344-0.083984 1.5002 1.5002 0 0 0-0.083984-0.1875 1.5002 1.5002 0 0 0-0.042969-0.078125 1.5002 1.5002 0 0 0-0.007813-0.011719 1.5002 1.5002 0 0 0-0.042968-0.064453l-0.00586-0.009766a1.5002 1.5002 0 0 0-0.011718-0.015625l-6.9824-9.9746a1.5002 1.5002 0 0 0-1.2285-0.64062h-21a1.5002 1.5002 0 0 0-1.2285 0.64062l-6.9785 9.9688a1.5002 1.5002 0 0 0-0.056641 0.083984 1.5002 1.5002 0 0 0-0.021484 0.033203 1.5002 1.5002 0 0 0 0 0.001954 1.5002 1.5002 0 0 0-0.048828 0.08789 1.5002 1.5002 0 0 0-0.001954 0.001953 1.5002 1.5002 0 0 0-0.080078 0.1875 1.5002 1.5002 0 0 0 0 0.001953 1.5002 1.5002 0 0 0-0.007812 0.021485 1.5002 1.5002 0 0 0-0.076172 0.4707v17.5h-4v-26a1.5002 1.5002 0 0 0-0.76367-1.3066l-8-4.5a1.5 1.5 0 0 0-0.68945-0.19336 1.5 1.5 0 0 0-0.10352 0zm22.838 6h8.2188v7h-13.119l4.9004-7zm11.219 0h8.2188l4.9004 7h-13.119v-7zm-17.5 10h32v16h-31-1v-16zm1 19c1.6746 0 3 1.3253 3 3 0 1.6746-1.3254 3-3 3s-3-1.3254-3-3c0-1.6747 1.3254-3 3-3zm29 0c1.6746 0 3 1.3253 3 3 0 1.6746-1.3254 3-3 3s-3-1.3254-3-3c0-1.6747 1.3254-3 3-3z"/></svg>
