<?xml version="1.0" encoding="UTF-8"?>
<svg width="60" height="60" version="1.1" viewBox="0 0 60 60" xmlns="http://www.w3.org/2000/svg"><path d="m7.6816 10c-2.0167 0-3.6816 1.6603-3.6816 3.6777v32.645c0 2.0175 1.665 3.6777 3.6816 3.6777h43.637c2.0167 0 3.6816-1.6603 3.6816-3.6777v-7.3223h0.5a1.5002 1.5002 0 0 0 1.5-1.5v-15a1.5002 1.5002 0 0 0-1.5-1.5h-0.5v-7.3223c0-2.0174-1.665-3.6777-3.6816-3.6777h-43.637zm0 3h43.637c0.38338 0 0.68164 0.29964 0.68164 0.67773v7.3223h-9.0371c-4.9328 0-8.9629 4.0548-8.9629 9 0 4.9451 4.0301 9 8.9629 9h9.0371v7.3223c0 0.37822-0.29826 0.67773-0.68164 0.67773h-43.637c-0.38336 0-0.68164-0.29956-0.68164-0.67773v-32.645c0-0.37805 0.29828-0.67773 0.68164-0.67773zm35.281 11h11.037v12h-11.037c-3.2977 0-5.9629-2.6738-5.9629-6 0-3.3263 2.6652-6 5.9629-6zm0.53711 1.5c-2.4675 0-4.5 2.0324-4.5 4.5 0 2.4675 2.0325 4.5 4.5 4.5s4.5-2.0325 4.5-4.5c0-2.4676-2.0325-4.5-4.5-4.5zm0 3c0.84613 0 1.5 0.65377 1.5 1.5 0 0.84609-0.65387 1.5-1.5 1.5s-1.5-0.65391-1.5-1.5c0-0.84623 0.65387-1.5 1.5-1.5z"/></svg>
