<?xml version="1.0" encoding="UTF-8"?>
<svg width="22" height="20" version="1.1" viewBox="0 0 22 20" xmlns="http://www.w3.org/2000/svg"><path d="m0.49805 0a0.5 0.5 0 0 0-0.49414 0.44336 0.5 0.5 0 0 0 0.43945 0.55273l2.7617 0.32031 5.6152 13.51a0.50005 0.50005 0 0 0 0.46094 0.30859h7.6367a0.5 0.5 0 0 0 0.5-0.5 0.5 0.5 0 0 0-0.5-0.5h-7.3027l-0.95508-2.2988h9.9766a0.50005 0.50005 0 0 0 0.46484-0.31445l2.8633-7.2246a0.50005 0.50005 0 0 0-0.46484-0.68555h-2.8633-9.5449-3.8496l-1.2266-2.9492a0.50005 0.50005 0 0 0-0.4043-0.30469l-3.0547-0.35352a0.5 0.5 0 0 0-0.058594-0.0039062zm5.2266 4.6113h3.3672 9.5449 2.127l-2.4668 6.2246h-9.834l-2.7383-6.2246zm3.7754 11.389c-0.82251 0-1.5 0.67744-1.5 1.5 0 0.82249 0.67749 1.5 1.5 1.5 0.82245 0 1.5-0.67751 1.5-1.5 0-0.82256-0.67755-1.5-1.5-1.5zm7 0c-0.82252 0-1.5 0.67744-1.5 1.5 0 0.82249 0.67748 1.5 1.5 1.5 0.82245 0 1.5-0.67751 1.5-1.5 0-0.82256-0.67755-1.5-1.5-1.5zm-7 1c0.28199 0 0.5 0.21779 0.5 0.5 0 0.282-0.21801 0.5-0.5 0.5-0.28215 0-0.5-0.218-0.5-0.5 0-0.28221 0.21785-0.5 0.5-0.5zm7 0c0.28198 0 0.5 0.21778 0.5 0.5 0 0.282-0.21802 0.5-0.5 0.5-0.28218 0-0.5-0.218-0.5-0.5 0-0.28222 0.21782-0.5 0.5-0.5z"/></svg>
