<?xml version="1.0" encoding="UTF-8"?>
<svg width="28" height="20" version="1.1" viewBox="0 0 28 20" xmlns="http://www.w3.org/2000/svg"><path d="m1.8518 0h24.296c1.0259 0 1.8518 0.82593 1.8518 1.8518v0.2963c0 1.0259-0.82592 1.8518-1.8518 1.8518h-24.296c-1.0259 0-1.8518-0.82593-1.8518-1.8518v-0.2963c0-1.0259 0.82593-1.8518 1.8518-1.8518z"/><path d="m1.8518 8h24.296c1.0259 0 1.8518 0.82593 1.8518 1.8518v0.2963c0 1.0259-0.82592 1.8518-1.8518 1.8518h-24.296c-1.0259 0-1.8518-0.82592-1.8518-1.8518v-0.2963c0-1.0259 0.82593-1.8518 1.8518-1.8518z"/><path d="m1.8518 16h24.296c1.0259 0 1.8518 0.82592 1.8518 1.8518v0.2963c0 1.0259-0.82592 1.8518-1.8518 1.8518h-24.296c-1.0259 0-1.8518-0.82592-1.8518-1.8518v-0.2963c0-1.0259 0.82593-1.8518 1.8518-1.8518z"/></svg>
