<?xml version="1.0" encoding="UTF-8"?>
<svg width="16" height="16" version="1.1" viewBox="0 0 16 16" xmlns="http://www.w3.org/2000/svg"><path d="m0 0v5.4883a0.5 0.5 0 0 0 0 0.011719v4.9883a0.5 0.5 0 0 0 0 0.011719v5.5h5.4883 0.011719 4.9883 0.011719 5.5v-5.4883a0.5 0.5 0 0 0 0-0.011719v-4.9883a0.5 0.5 0 0 0 0-0.011719v-5.5h-0.5-4.9883-0.011719-4.9883-0.011719-5.5zm1 1h4v4h-4v-4zm5 0h4v4h-4v-4zm5 0h4v4h-4v-4zm-10 5h4v4h-4v-4zm5 0h4v4h-4v-4zm5 0h4v4h-4v-4zm-10 5h4v4h-4v-4zm5 0h4v4h-4v-4zm5 0h4v4h-4v-4z"/></svg>
