<?xml version="1.0" encoding="UTF-8"?>
<svg width="14" height="14" version="1.1" viewBox="0 0 14 14" xmlns="http://www.w3.org/2000/svg"><path d="m0.97656 0.5a0.5 0.5 0 0 0-0.33008 0.14648 0.5 0.5 0 0 0 0 0.70703l5.6465 5.6465-5.6465 5.6465a0.5 0.5 0 0 0 0 0.70703 0.5 0.5 0 0 0 0.70703 0l5.6465-5.6465 5.6465 5.6465a0.5 0.5 0 0 0 0.70703 0 0.5 0.5 0 0 0 0-0.70703l-5.6465-5.6465 5.6465-5.6465a0.5 0.5 0 0 0 0-0.70703 0.5 0.5 0 0 0-0.37695-0.14648 0.5 0.5 0 0 0-0.33008 0.14648l-5.6465 5.6465-5.6465-5.6465a0.5 0.5 0 0 0-0.37695-0.14648z"/></svg>
