<?xml version="1.0" encoding="UTF-8"?>
<svg width="17" height="19" version="1.1" viewBox="0 0 17 19" xmlns="http://www.w3.org/2000/svg"><path d="m6.5 0c-1.3764 0-2.5 1.1236-2.5 2.5v2.5h-1.5c-1.3764 0-2.5 1.1236-2.5 2.5v9c0 1.3764 1.1236 2.5 2.5 2.5h8c1.3764 0 2.5-1.1236 2.5-2.5v-2.5h1.5c1.3764 0 2.5-1.1236 2.5-2.5v-9c0-1.3764-1.1236-2.5-2.5-2.5h-8zm0 1h8c0.83965 0 1.5 0.66035 1.5 1.5v9c0 0.83965-0.66035 1.5-1.5 1.5h-1.5v-5.5c0-1.3764-1.1236-2.5-2.5-2.5h-5.5v-2.5c0-0.83965 0.66035-1.5 1.5-1.5zm-4 5h1.5 6.5c0.83965 0 1.5 0.66035 1.5 1.5v6.5 2.5c0 0.83965-0.66035 1.5-1.5 1.5h-8c-0.83965 0-1.5-0.66035-1.5-1.5v-9c0-0.83965 0.66035-1.5 1.5-1.5z"/></svg>
