<?xml version="1.0" encoding="UTF-8"?>
<svg width="14" height="14" version="1.1" viewBox="0 0 14 14" xmlns="http://www.w3.org/2000/svg"><path d="m10.705 0c-0.2766 1.6005e-6 -0.5524 0.10325-0.75977 0.31055l-5.457 5.4551-3.4707 3.4707a0.50005 0.50005 0 0 0-0.13477 0.24414l-0.0019531 0.013672a0.5 0.5 0 0 0-0.023438 0.10156l-0.53906 2.418-0.30664 1.373a0.50005 0.50005 0 0 0 0.59766 0.5957l3.8066-0.84766h0.0058594a0.5 0.5 0 0 0 0.056641-0.013672l0.037109-0.007813a0.50005 0.50005 0 0 0 0.24414-0.13476l3.4727-3.4707 3.9824-3.9824a0.5 0.5 0 0 0 0.011718-0.0097656 0.5 0.5 0 0 0 0.042969-0.037109 0.5 0.5 0 0 0 0.039063-0.044922 0.5 0.5 0 0 0 0.001953-0.0019532l1.3789-1.3789c0.41466-0.41465 0.41468-1.1049 0-1.5195a0.50005 0.50005 0 0 0-0.001953-0.0019531l-2.2207-2.2207c-0.20738-0.20728-0.48512-0.31055-0.76172-0.31055zm0 0.99023c0.017452-6.41e-6 0.035865 0.0085309 0.054688 0.027344l2.2227 2.2227c0.037521 0.037519 0.035581 0.067935-0.001953 0.10547l-1.0684 1.0684-2.3281-2.3281 1.0684-1.0684c0.018793-0.018787 0.035282-0.027337 0.052734-0.027344zm-1.8301 1.8027 2.3301 2.3281-3.6797 3.6797-3.1621 3.1602-2.3281-2.3301 3.1602-3.1582 3.6797-3.6797zm-7.2305 7.8633 1.6934 1.6934-1.291 0.28906-0.69141-0.69141 0.28906-1.291z"/></svg>
