<?xml version="1.0" encoding="UTF-8"?>
<svg width="23" height="15" version="1.1" viewBox="0 0 23 15" xmlns="http://www.w3.org/2000/svg"><path d="m2.4121 0c-1.3202 1.8497e-16 -2.4121 1.0593-2.4121 2.3672v10.266c0 1.3079 1.0919 2.3672 2.4121 2.3672h18.176c1.3202 0 2.4121-1.0593 2.4121-2.3672v-10.266c0-1.3079-1.0919-2.3672-2.4121-2.3672h-18.176zm0 1h18.176c0.17129 0 0.33183 0.033466 0.48242 0.085938l-8.6445 7.5703c-0.53479 0.46824-1.3168 0.46824-1.8516 0l-8.6445-7.5703c0.15059-0.052472 0.31113-0.085938 0.48242-0.085938zm-1.252 0.74414 8.7539 7.666c0.90496 0.79235 2.2669 0.79235 3.1719 0l8.7539-7.666c0.099016 0.1878 0.16016 0.39734 0.16016 0.62305v10.266c0 0.75405-0.61919 1.3672-1.4121 1.3672h-18.176c-0.79289 0-1.4121-0.61315-1.4121-1.3672v-10.266c0-0.2257 0.061136-0.43525 0.16016-0.62305z"/></svg>
