<?xml version="1.0" encoding="UTF-8"?>
<svg width="24" height="24" version="1.1" viewBox="0 0 24 24" xmlns="http://www.w3.org/2000/svg"><path d="m12 0c-6.0701 0-11 4.9299-11 11 0 6.0701 4.9299 11 11 11 1.6511 0 3.2024-0.38329 4.6055-1.041l5.7285 2.0137a0.50005 0.50005 0 0 0 0.63867-0.63867l-1.8535-5.2656c1.1669-1.7445 1.8809-3.8169 1.8809-6.0684 0-6.0701-4.9299-11-11-11zm0 1c5.5299 0 10 4.4701 10 10 0 2.1448-0.67528 4.1227-1.8281 5.752a0.50005 0.50005 0 0 0-0.064453 0.45312l1.5742 4.4766-4.9062-1.7227a0.50005 0.50005 0 0 0-0.38867 0.023438c-1.322 0.65626-2.803 1.0176-4.3867 1.0176-5.5299 0-10-4.4701-10-10 0-5.5299 4.4701-10 10-10zm-4.5 7a0.5 0.5 0 0 0-0.5 0.5 0.5 0.5 0 0 0 0.5 0.5h9a0.5 0.5 0 0 0 0.5-0.5 0.5 0.5 0 0 0-0.5-0.5h-9zm0 3a0.5 0.5 0 0 0-0.5 0.5 0.5 0.5 0 0 0 0.5 0.5h9a0.5 0.5 0 0 0 0.5-0.5 0.5 0.5 0 0 0-0.5-0.5h-9zm0 3a0.5 0.5 0 0 0-0.5 0.5 0.5 0.5 0 0 0 0.5 0.5h9a0.5 0.5 0 0 0 0.5-0.5 0.5 0.5 0 0 0-0.5-0.5h-9z"/></svg>
