<?xml version="1.0" encoding="UTF-8"?>
<svg width="22" height="20" version="1.1" viewBox="0 0 22 20" xmlns="http://www.w3.org/2000/svg"><path d="m6.8281 3c-2.7484 0-4.8281 2.3133-4.8281 5.2188 0 1.3648 0.28192 2.3833 0.79883 3.1836 0.51691 0.80031 1.2401 1.3599 2.0527 1.8945 1.6253 1.0693 3.6561 2.0756 5.7598 4.6758 0.2027 0.25014 0.58552 0.24633 0.7832-0.0078 2.0246-2.5951 4.0508-3.5984 5.6934-4.666 0.82127-0.5338 1.5577-1.0908 2.0879-1.8906 0.53016-0.7998 0.82422-1.8222 0.82422-3.1895 0-2.9054-2.0797-5.2188-4.8281-5.2188-1.9473 0-3.5172 1.1918-4.291 2.9023-0.19369-0.49217-0.40919-0.97267-0.73047-1.3633-0.78269-0.95161-1.9481-1.5391-3.3223-1.5391z"/></svg>
