<?xml version="1.0" encoding="UTF-8"?>
<svg width="10" height="16" version="1.1" viewBox="0 0 10 16" xmlns="http://www.w3.org/2000/svg"><path d="m4.584 0a0.50005 0.50005 0 0 0-0.044922 0.0019531c-3.5426 0.3181-5.5534 4.2227-4.0195 7.3906l4.0312 8.3262a0.50005 0.50005 0 0 0 0.89844 0l4.0312-8.3262c1.5339-3.1679-0.47694-7.0725-4.0195-7.3906a0.50005 0.50005 0 0 0-0.042969-0.0019531h-0.41797-0.41602zm0.037109 1h0.37891 0.37891c2.8473 0.26028 4.4463 3.3853 3.2012 5.957l-3.5801 7.3965-3.5801-7.3965c-1.2452-2.5717 0.35385-5.6967 3.2012-5.957zm0.37891 2c-0.99908 0-2 0.8074-2 2s1.0009 2 2 2c0.99907 0 2-0.8074 2-2s-1.0009-2-2-2zm0 1c0.46109 0 1 0.37092 1 1s-0.53891 1-1 1c-0.46109 0-1-0.37092-1-1s0.53891-1 1-1z"/></svg>
