<?xml version="1.0" encoding="UTF-8"?>
<svg width="20" height="20" version="1.1" viewBox="0 0 20 20" xmlns="http://www.w3.org/2000/svg"><path d="m17.5 1c-0.27614-8.2e-7 -0.5 0.22386-0.5 0.5v2.873c-1.6886-2.0996-4.2435-3.3718-6.9961-3.373-0.03998-2.664e-4 -0.081112-2.664e-4 -0.12109 0h-0.00195c-4.918 0.065549-8.8813 4.0816-8.8809 9 0 4.9646 4.0354 9 9 9 4.9646 0 9-4.0354 9-9 0-0.27614-0.22386-0.5-0.5-0.5-0.27614-3e-7 -0.5 0.22386-0.5 0.5 0 4.4242-3.5758 8-8 8-4.4242 0-8-3.5758-8-8-3.892e-4 -4.382 3.5093-7.9405 7.8906-8 0.035539-2.368e-4 0.06993-2.368e-4 0.10547 0 0.0013 5.1e-6 0.0026 5.1e-6 0.00391 0 2.6638 0 5.1204 1.3298 6.5996 3.5h-3.5996c-0.27614-8e-7 -0.5 0.22386-0.5 0.5-1e-6 0.27614 0.22386 0.5 0.5 0.5h4.5c0.27613-2.68e-5 0.49997-0.22387 0.5-0.5v-4.5c1e-6 -0.27614-0.22386-0.5-0.5-0.5z"/></svg>
