<?xml version="1.0" encoding="UTF-8"?>
<svg width="30" height="27" version="1.1" viewBox="0 0 30 27" xmlns="http://www.w3.org/2000/svg"><path d="m2.5 0c-1.3764 0-2.5 1.1236-2.5 2.5v3.5a0.5 0.5 0 0 0 0.5 0.5 0.5 0.5 0 0 0 0.5-0.5v-3.5c0-0.83965 0.66035-1.5 1.5-1.5h5a0.5 0.5 0 0 0 0.5-0.5 0.5 0.5 0 0 0-0.5-0.5h-5zm20 0a0.5 0.5 0 0 0-0.5 0.5 0.5 0.5 0 0 0 0.5 0.5h5c0.83965 0 1.5 0.66035 1.5 1.5v3.5a0.5 0.5 0 0 0 0.5 0.5 0.5 0.5 0 0 0 0.5-0.5v-3.5c0-1.3764-1.1236-2.5-2.5-2.5h-5zm-10 4c-0.69086 0-1.2918 0.30135-1.709 0.75195-0.41714 0.4506-0.67011 1.0362-0.7832 1.6582l-0.10742 0.58984h-4.4004c-1.3763 0-2.5 1.1237-2.5 2.5v11c0 1.3763 1.1237 2.5 2.5 2.5h19c1.3763 0 2.5-1.1236 2.5-2.5v-11c0-1.3763-1.1237-2.5-2.5-2.5h-4.4004l-0.10742-0.58984c-0.11309-0.622-0.36606-1.2076-0.7832-1.6582-0.41714-0.4506-1.0181-0.75195-1.709-0.75195h-5zm0 1h5c0.41714 0 0.7183 0.15477 0.97461 0.43164 0.25631 0.27687 0.44809 0.69007 0.5332 1.1582l0.25586 1.4102h5.2363c0.83965 0 1.5 0.66035 1.5 1.5v11c0 0.83965-0.66035 1.5-1.5 1.5h-19c-0.83965 0-1.5-0.66035-1.5-1.5v-11c0-0.83965 0.66035-1.5 1.5-1.5h5.2363l0.25586-1.4102c0.085113-0.46813 0.27689-0.88134 0.5332-1.1582 0.25631-0.27687 0.55747-0.43164 0.97461-0.43164zm-6 4c-0.8225 0-1.5 0.6775-1.5 1.5 0 0.8225 0.6775 1.5 1.5 1.5 0.6853 0 1.1775-0.51385 1.3535-1.1465a0.5 0.5 0 0 0 0.14648-0.35352 0.5 0.5 0 0 0-0.14648-0.35352c-0.17598-0.63264-0.66822-1.1465-1.3535-1.1465zm8.5 0c-3.3078 0-6 2.6922-6 6s2.6922 6 6 6c3.2386 0 5.8515-2.5922 5.9609-5.8047a0.5 0.5 0 0 0 0.039062-0.19531 0.5 0.5 0 0 0-0.039062-0.19141c-0.10739-3.2143-2.721-5.8086-5.9609-5.8086zm-8.5 1c0.28206 0 0.5 0.21794 0.5 0.5s-0.21794 0.5-0.5 0.5-0.5-0.21794-0.5-0.5 0.21794-0.5 0.5-0.5zm8.5 0c2.7673 0 5 2.2327 5 5s-2.2327 5-5 5-5-2.2327-5-5 2.2327-5 5-5zm0 1c-2.2032 0-4 1.7968-4 4s1.7968 4 4 4c2.1341 0 3.853-1.6967 3.9609-3.8047a0.5 0.5 0 0 0 0.039062-0.19531 0.5 0.5 0 0 0-0.039062-0.19141c-0.10596-2.1098-1.8256-3.8086-3.9609-3.8086zm0 1c1.6628 0 3 1.3372 3 3s-1.3372 3-3 3-3-1.3372-3-3 1.3372-3 3-3zm-14.5 8.5a0.5 0.5 0 0 0-0.5 0.5v3.5c0 1.3764 1.1236 2.5 2.5 2.5h5a0.5 0.5 0 0 0 0.5-0.5 0.5 0.5 0 0 0-0.5-0.5h-5c-0.83965 0-1.5-0.66035-1.5-1.5v-3.5a0.5 0.5 0 0 0-0.5-0.5zm29 0a0.5 0.5 0 0 0-0.5 0.5v3.5c0 0.83965-0.66035 1.5-1.5 1.5h-5a0.5 0.5 0 0 0-0.5 0.5 0.5 0.5 0 0 0 0.5 0.5h5c1.3764 0 2.5-1.1236 2.5-2.5v-3.5a0.5 0.5 0 0 0-0.5-0.5z"/></svg>
