<?xml version="1.0" encoding="UTF-8"?>
<svg width="19" height="19" version="1.1" viewBox="0 0 19 19" xmlns="http://www.w3.org/2000/svg"><path d="m7.1211 0c-3.9281 3.1804e-16 -7.1211 3.2095-7.1211 7.1523 0 3.9429 3.193 7.1523 7.1211 7.1523 1.3739 0 2.6533-0.39878 3.7422-1.0781l5.2734 5.2969a0.50005 0.50005 0 0 0 0.005859 0.005859c0.31451 0.30505 0.73097 0.4707 1.1504 0.4707 0.41069 0 0.82958-0.15624 1.1484-0.47656a0.50005 0.50005 0 0 0 0.003906-0.001954c0.62218-0.6363 0.62218-1.6684 0-2.3047a0.50005 0.50005 0 0 0-0.003906-0.001953l-5.2754-5.3008c0.6776-1.0946 1.0762-2.3809 1.0762-3.7617-2e-6 -3.9428-3.193-7.1523-7.1211-7.1523zm0 1c3.3851 0 6.1211 2.7474 6.1211 6.1523 0 1.2865-0.39199 2.4788-1.0605 3.4648-5.13e-4 7.56e-4 -0.00144 0.001196-0.001953 0.001953a0.5 0.5 0 0 0-0.00586 0.005859 0.5 0.5 0 0 0-0.089844 0.12305c-0.38402 0.53514-0.8507 1.0043-1.3828 1.3906a0.5 0.5 0 0 0-0.125 0.089844 0.5 0.5 0 0 0-0.009766 0.011718c-0.98109 0.67166-2.1663 1.0645-3.4453 1.0645-3.3851 0-6.1211-2.7474-6.1211-6.1523 0-3.4049 2.736-6.1523 6.1211-6.1523zm5.457 10.74 5.1523 5.1777c0.24753 0.25483 0.24646 0.64497 0 0.90039-0.11731 0.11702-0.28796 0.18164-0.4375 0.18164-0.17258 0-0.31584-0.054346-0.45312-0.1875l-5.1543-5.1777c0.32255-0.27143 0.62223-0.57067 0.89258-0.89453z" fill="#9e9e9e"/></svg>
