<?xml version="1.0" encoding="UTF-8"?>
<svg width="17" height="9" version="1.1" viewBox="0 0 17 9" xmlns="http://www.w3.org/2000/svg"><path d="m13.477 1.0005a0.5 0.5 0 0 0-0.33008 0.14648 0.5 0.5 0 0 0 0 0.70703l2.1465 2.1465h-10.895c-2.1855 0-3.8984 1.7448-3.8984 3.8691a0.5 0.5 0 0 0 0.5 0.5 0.5 0.5 0 0 0 0.5-0.5c0-1.5962 1.2361-2.8691 2.8984-2.8691h10.895l-2.1465 2.1465a0.5 0.5 0 0 0 0 0.70703 0.5 0.5 0 0 0 0.70703 0l3-3a0.50005 0.50005 0 0 0 0-0.70703l-3-3a0.5 0.5 0 0 0-0.37695-0.14648z"/></svg>
