<?xml version="1.0" encoding="UTF-8"?>
<svg width="32" height="32" version="1.1" viewBox="0 0 32 32" xmlns="http://www.w3.org/2000/svg"><path d="m16 0c-8.8306 0-16 7.1694-16 16 1.2216e-15 8.8306 7.1694 16 16 16 8.8306 0 16-7.1694 16-16 0-8.8306-7.1694-16-16-16zm0 1c8.2902 0 15 6.7098 15 15 0 8.2902-6.7098 15-15 15-8.2902 0-15-6.7098-15-15 0-8.2902 6.7098-15 15-15zm-3.5 11c-0.8287 0-1.5 0.6713-1.5 1.5s0.6713 1.5 1.5 1.5 1.5-0.6713 1.5-1.5-0.6713-1.5-1.5-1.5zm7 0c-0.8287 0-1.5 0.6713-1.5 1.5s0.6713 1.5 1.5 1.5 1.5-0.6713 1.5-1.5-0.6729-1.5-1.5-1.5zm-12.492 6.5a0.5 0.5 0 0 0-0.1875 0.033203 0.5 0.5 0 0 0-0.28711 0.64648c1.4243 3.7007 5.1337 6.3203 9.4668 6.3203 4.3332 0 8.0425-2.6209 9.4668-6.3203a0.5 0.5 0 0 0-0.28711-0.64648 0.5 0.5 0 0 0-0.64648 0.28711c-1.2719 3.3036-4.6032 5.6797-8.5332 5.6797-3.9301 0-7.2613-2.375-8.5332-5.6797a0.5 0.5 0 0 0-0.45898-0.32031z"/></svg>
