<?xml version="1.0" encoding="UTF-8"?>
<svg width="32" height="32" version="1.1" viewBox="0 0 32 32" xmlns="http://www.w3.org/2000/svg"><path d="m16 0c-8.8363 0-16 7.1634-16 16 0 8.8366 7.1637 16 16 16 8.8363 0 16-7.1634 16-16 0-8.8366-7.1637-16-16-16zm8.1161 17.73c0.74576 0.72834 1.5347 1.4139 2.2041 2.2175 0.29662 0.35555 0.57621 0.72315 0.78903 1.1367 0.30377 0.58952 0.02947 1.2361-0.49828 1.2712l-3.2779-6.85e-4c-0.84659 0.07009-1.5203-0.27136-2.0883-0.85012-0.45335-0.46128-0.8741-0.95398-1.3108-1.4309-0.17836-0.19579-0.36632-0.38012-0.59021-0.52511-0.44689-0.29075-0.83514-0.20166-1.0911 0.2652-0.26089 0.47498-0.32041 1.0014-0.34537 1.5301-0.03563 0.77288-0.26872 0.97484-1.0442 1.0112-1.6572 0.07763-3.2294-0.17376-4.6908-1.0092-1.2892-0.73695-2.287-1.777-3.1565-2.9545-1.6931-2.2955-2.9898-4.8149-4.1549-7.4067-0.26222-0.58365-0.070386-0.89593 0.57355-0.90807 1.0698-0.02066 2.1397-0.01801 3.2095-9.79e-4 0.43539 0.0069 0.72349 0.25599 0.89079 0.66686 0.57807 1.4224 1.2868 2.7757 2.175 4.0308 0.23661 0.33421 0.47822 0.66754 0.82232 0.90357 0.37973 0.2606 0.66911 0.17445 0.84816-0.24953 0.11463-0.26941 0.16407-0.55741 0.18894-0.8462 0.08507-0.98893 0.09525-1.9776-0.05208-2.9627-0.09163-0.61644-0.43828-1.0145-1.0528-1.131-0.31297-0.05932-0.26715-0.17513-0.11493-0.35389 0.26422-0.30905 0.5117-0.50024 1.0064-0.50024l3.7035-6.559e-4c0.58365 0.11458 0.71463 0.37647 0.79383 0.96443l0.0033 4.1156c-0.0069 0.2276 0.11424 0.9019 0.52276 1.0509 0.32736 0.10798 0.54341-0.15458 0.7392-0.36172 0.8881-0.94253 1.521-2.0549 2.0876-3.2062 0.25012-0.50778 0.46588-1.0332 0.67538-1.5596 0.15585-0.38923 0.39804-0.58081 0.83739-0.57425l3.5663 0.0043c0.10514 0 0.21184 9.79e-4 0.31591 0.01899 0.60107 0.10279 0.76573 0.36143 0.57983 0.94772-0.2927 0.92119-0.86138 1.6885-1.4172 2.4578-0.59579 0.82369-1.2312 1.6185-1.8211 2.4457-0.54214 0.75624-0.49926 1.1369 0.17386 1.7937z"/></svg>
