<?xml version="1.0" encoding="UTF-8"?>
<svg width="32" height="32" version="1.1" viewBox="0 0 32 32" xmlns="http://www.w3.org/2000/svg"><path d="m15.982 2.3926e-6a16 16 0 0 0-15.982 16 16 16 0 0 0 16 16 16 16 0 0 0 16-16 16 16 0 0 0-16-16 16 16 0 0 0-0.0175 0zm0.02001 5.6075c5.7312 0 10.39 4.6629 10.39 10.39 0 5.7313-4.6638 10.395-10.395 10.395-1.71 0-3.3896-0.42328-4.8925-1.2275l-4.3525 1.195c-0.07717 0.02035-0.15627 0.0325-0.2375 0.0325-0.25996 0-0.51784-0.1104-0.6925-0.3175-0.22746-0.26816-0.27872-0.6416-0.1325-0.9625l1.58-3.4775c-1.0886-1.6817-1.6625-3.6178-1.6625-5.6325 0-5.7312 4.6638-10.395 10.395-10.395zm5e-3 1.815c-4.732 0-8.58 3.848-8.58 8.58 0 1.8115 0.55737 3.5461 1.6175 5.0125 0.1909 0.26394 0.22404 0.60855 0.09 0.905l-0.9925 2.1825 2.8425-0.78c0.07717-0.02035 0.15877-0.0325 0.24-0.0325 0.16247 3e-6 0.31783 0.03872 0.46 0.12 1.3079 0.76762 2.7984 1.17 4.3175 1.17 4.728 0 8.5785-3.8496 8.5825-8.5775 0-4.732-3.8455-8.58-8.5775-8.58zm-3.1475 3.845c0.11398 0.01574 0.22494 0.04963 0.3275 0.10751 0.44273 0.25184 0.67284 0.88727 0.88 1.33 0.15841 0.34525 0.3425 0.80256 0.2775 1.1925-0.06499 0.394-0.37473 0.7241-0.6225 1.0125-0.16653 0.19496-0.1906 0.36129-0.05249 0.5725 0.81642 1.3566 1.9465 2.3436 3.425 2.9325 0.19899 0.08128 0.35758 0.05743 0.4875-0.105 0.2519-0.3168 0.50352-0.93004 0.8975-1.0925 0.51187-0.21121 1.0803 0.08004 1.515 0.34 0.40614 0.24371 1.0837 0.54042 1.1975 1.04 0.05274 0.24371 0.0035 0.50004-0.09 0.7275-0.3209 0.77581-1.1108 1.2708-1.915 1.425-0.76774 0.1463-1.4017-0.09686-2.1125-0.3325-0.63364-0.2071-1.2488-0.51319-1.8175-0.8625-1.1414-0.69453-2.1245-1.6277-2.9125-2.7-0.23966-0.32901-0.46284-0.66662-0.67-1.02-0.27214-0.4671-0.51407-0.95853-0.64-1.4825-0.0528-0.21934-0.0784-0.44254-0.0825-0.67-0.01216-0.79612 0.29292-1.6007 0.9225-2.1125 0.27112-0.22238 0.64304-0.34972 0.985-0.3025z"/></svg>
