<?xml version="1.0" encoding="UTF-8"?>
<svg width="32" height="32" version="1.1" viewBox="0 0 32 32" xmlns="http://www.w3.org/2000/svg"><path d="m16 0c-8.8352 0-16 7.1648-16 16 0 8.8352 7.1648 16 16 16 8.8352 0 16-7.1648 16-16 0-8.8352-7.1648-16-16-16zm0 6.8125c2.4951 0 2.8074 0.0097635 3.7871 0.054688 0.97797 0.044434 1.6459 0.20093 2.2305 0.42773 0.61302 0.23072 1.168 0.59301 1.627 1.0605 0.46725 0.45898 0.83 1.0139 1.0605 1.627 0.22721 0.58443 0.3831 1.2524 0.42773 2.2305 0.044641 0.97973 0.054688 1.292 0.054688 3.7871s-0.009748 2.8074-0.054688 3.7871c-0.04435 0.97797-0.20072 1.6459-0.42773 2.2305-0.47733 1.2341-1.4534 2.2102-2.6875 2.6875-0.58424 0.22702-1.2527 0.383-2.2305 0.42773-0.97973 0.044641-1.292 0.054688-3.7871 0.054688-2.4953 0-2.8072-0.010048-3.7871-0.054688-0.97777-0.04474-1.6462-0.20072-2.2305-0.42773-0.61324-0.23074-1.168-0.5931-1.627-1.0605-0.46728-0.45874-0.82983-1.0139-1.0605-1.627-0.22705-0.58424-0.3833-1.2527-0.42773-2.2305-0.045169-0.97993-0.054688-1.292-0.054688-3.7871s0.0097635-2.8074 0.054688-3.7871c0.044434-0.97806 0.20069-1.646 0.42773-2.2305 0.23072-0.61304 0.59302-1.1682 1.0605-1.627 0.45874-0.46754 1.0139-0.82983 1.627-1.0605 0.58443-0.22705 1.2524-0.38306 2.2305-0.42773 0.97973-0.044679 1.292-0.054688 3.7871-0.054688zm0 1.6562c-2.4533 0-2.7441 0.0085444-3.7129 0.052734-0.89574 0.041018-1.3815 0.19068-1.7051 0.31641-0.39912 0.14721-0.76051 0.38232-1.0566 0.6875-0.30517 0.29634-0.54004 0.65743-0.6875 1.0566-0.12574 0.32374-0.27563 0.80934-0.31641 1.7051-0.04419 0.96877-0.052734 1.2596-0.052734 3.7129 0 2.4531 0.0085494 2.7439 0.052734 3.7129 0.040773 0.89574 0.19067 1.3813 0.31641 1.7051 0.14746 0.39921 0.38228 0.76031 0.6875 1.0566 0.29633 0.30524 0.65743 0.54027 1.0566 0.6875 0.32374 0.12599 0.80934 0.27558 1.7051 0.31641 0.96876 0.04415 1.2595 0.052734 3.7129 0.052734 2.4535 0 2.7444-0.008584 3.7129-0.052734 0.89583-0.04082 1.3813-0.19042 1.7051-0.31641 0.80127-0.30915 1.4351-0.94287 1.7441-1.7441 0.1258-0.32374 0.27549-0.80934 0.31641-1.7051 0.04425-0.96896 0.052734-1.2597 0.052734-3.7129 0-2.4533-0.008484-2.7441-0.052734-3.7129-0.04073-0.89574-0.19042-1.3813-0.31641-1.7051-0.14714-0.39892-0.38236-0.7603-0.6875-1.0566-0.29642-0.30518-0.65752-0.54029-1.0566-0.6875-0.32374-0.12573-0.80934-0.27563-1.7051-0.31641-0.96896-0.04419-1.2597-0.052734-3.7129-0.052734zm4.9043 1.5234c0.6089 0 1.1016 0.49461 1.1016 1.1035-1.96e-4 0.6089-0.49266 1.1016-1.1016 1.1016-0.6089 0-1.1035-0.49266-1.1035-1.1016s0.49461-1.1035 1.1035-1.1035zm-4.9043 1.2891c2.6055 0 4.7168 2.113 4.7168 4.7188 0 2.6057-2.1113 4.7168-4.7168 4.7168-2.6057 0-4.7188-2.1111-4.7188-4.7168 0-2.6058 2.1131-4.7188 4.7188-4.7188zm0 1.6562c-1.6914 0-3.0625 1.3711-3.0625 3.0625 0 1.6913 1.3711 3.0625 3.0625 3.0625 1.6914 0 3.0625-1.3712 3.0625-3.0625 0-1.6914-1.3711-3.0625-3.0625-3.0625z"/></svg>
