<?xml version="1.0" encoding="UTF-8"?>
<svg width="50" height="50" version="1.1" viewBox="0 0 50 50" xmlns="http://www.w3.org/2000/svg"><path d="m25 0c-13.795 0-25 11.205-25 25 3.6976e-15 13.795 11.205 25 25 25s25-11.205 25-25-11.205-25-25-25zm0 2c12.714 0 23 10.286 23 23s-10.286 23-23 23-23-10.286-23-23 10.286-23 23-23zm13.502 11.5a1 1 0 0 0-0.7832 0.375l-15.334 19.168-10.213-9.2832a1 1 0 0 0-1.4121 0.068359 1 1 0 0 0 0.068359 1.4121l11 10a1.0001 1.0001 0 0 0 1.4531-0.11523l16-20a1 1 0 0 0-0.15625-1.4062 1 1 0 0 0-0.62305-0.21875z"/></svg>
