<?xml version="1.0" encoding="UTF-8"?>
<svg width="24" height="24" version="1.1" viewBox="0 0 24 24" xmlns="http://www.w3.org/2000/svg"><path d="m0.49609 3a0.5 0.5 0 0 0-0.41211 0.22266 0.5 0.5 0 0 0 0.13867 0.69336l2.7773 1.8516v10.732a0.50005 0.50005 0 0 0 0.5 0.5h2.0156c-0.31886 0.41974-0.51562 0.93544-0.51562 1.5 0 1.3748 1.1252 2.5 2.5 2.5s2.5-1.1252 2.5-2.5c0-0.56456-0.19677-1.0803-0.51562-1.5h8.0312c-0.31886 0.41974-0.51562 0.93544-0.51562 1.5 0 1.3748 1.1252 2.5 2.5 2.5s2.5-1.1252 2.5-2.5c0-0.56456-0.19677-1.0803-0.51562-1.5h2.0156a0.5 0.5 0 0 0 0.5-0.5 0.5 0.5 0 0 0-0.5-0.5h-2.5v-7.4863a0.50005 0.50005 0 0 0 0-0.027344 0.50005 0.50005 0 0 0-0.003906-0.044922 0.50005 0.50005 0 0 0-0.009766-0.058594 0.50005 0.50005 0 0 0-0.017578-0.056641 0.50005 0.50005 0 0 0-0.017578-0.042969 0.50005 0.50005 0 0 0-0.00586-0.011719 0.50005 0.50005 0 0 0-0.005859-0.011719 0.50005 0.50005 0 0 0-0.025391-0.039062 0.50005 0.50005 0 0 0-0.013671-0.021484l-0.021485-0.027344-2.9785-3.9727a0.50005 0.50005 0 0 0-0.40039-0.19922h-8a0.50005 0.50005 0 0 0-0.40039 0.19922l-3 4a0.50005 0.50005 0 0 0-0.0058594 0.0097656 0.50005 0.50005 0 0 0-0.033203 0.050781 0.50005 0.50005 0 0 0-0.025391 0.054688 0.50005 0.50005 0 0 0-0.035156 0.17383 0.50005 0.50005 0 0 0 0 0.011719 0.50005 0.50005 0 0 0 0 0.033203v7.4668h-2v-10.5a0.50005 0.50005 0 0 0-0.22266-0.41602l-3-2a0.5 0.5 0 0 0-0.28125-0.083984zm9.2539 2h3.25v3h-5.5l2.25-3zm4.25 0h3.25l2.25 3h-5.5v-3zm-7 4h6.4883 6.5117v7h-12.5-0.5v-7zm0.5 8c0.83436 0 1.5 0.66561 1.5 1.5s-0.66564 1.5-1.5 1.5-1.5-0.66561-1.5-1.5 0.66564-1.5 1.5-1.5zm12 0c0.8344 0 1.5 0.6656 1.5 1.5s-0.6656 1.5-1.5 1.5-1.5-0.6656-1.5-1.5 0.6656-1.5 1.5-1.5z"/></svg>
