<?xml version="1.0" encoding="UTF-8"?>
<svg width="24" height="24" version="1.1" viewBox="0 0 24 24" xmlns="http://www.w3.org/2000/svg"><path d="m7.8633 5c-1.5756 0-2.8633 1.2877-2.8633 2.8633s1.2877 2.8633 2.8633 2.8633c1.5756 0 2.8633-1.2877 2.8633-2.8633 0-1.5756-1.2877-2.8633-2.8633-2.8633zm10.613 0a0.5 0.5 0 0 0-0.33008 0.14648l-13 13a0.5 0.5 0 0 0 0 0.70703 0.5 0.5 0 0 0 0.70703 0l13-13a0.5 0.5 0 0 0 0-0.70703 0.5 0.5 0 0 0-0.37695-0.14648zm-10.613 1c1.0352 0 1.8633 0.8281 1.8633 1.8633 0 1.0352-0.8281 1.8633-1.8633 1.8633-1.0352 0-1.8633-0.8281-1.8633-1.8633 0-1.0352 0.8281-1.8633 1.8633-1.8633zm8.2734 7.2734c-1.5756 0-2.8633 1.2877-2.8633 2.8633 0 1.5756 1.2877 2.8633 2.8633 2.8633 1.5756 0 2.8633-1.2876 2.8633-2.8633 0-1.5756-1.2876-2.8633-2.8633-2.8633zm0 1c1.0352 0 1.8633 0.82809 1.8633 1.8633 0 1.0352-0.82805 1.8633-1.8633 1.8633-1.0352 0-1.8633-0.82806-1.8633-1.8633 0-1.0352 0.8281-1.8633 1.8633-1.8633z"/></svg>
