<?xml version="1.0" encoding="UTF-8"?>
<svg width="24" height="24" version="1.1" viewBox="0 0 24 24" xmlns="http://www.w3.org/2000/svg"><path d="m15.887 2c-0.16996 4.832e-4 -0.3403 0.012131-0.50781 0.035156-1.3179 0.18114-2.4081 1.0093-3.041 2.0254-0.13418 0.21741-0.2409 0.4443-0.33789 0.67188-0.096986-0.22758-0.20371-0.45446-0.33789-0.67188a0.50429 0.50799 0 0 0-0.0039-0.00586c-0.63853-1.0019-1.7179-1.83-3.0352-2.0117h-0.00195c-1.344-0.19372-2.8248 0.35662-3.3984 1.5801-0.50033 1.0646-0.10612 2.2829 0.70117 3.0703a0.50429 0.50799 0 0 0 0.00195 0.00195c0.12 0.11575 0.25807 0.20653 0.39062 0.30469h-2.8105a0.50538 0.50538 0 0 0-0.50586 0.50586v3.9883a0.50538 0.50538 0 0 0 0.50586 0.50586h0.49414v9.4941a0.50538 0.50538 0 0 0 0.50586 0.50586h14.988a0.50538 0.50538 0 0 0 0.50586-0.50586v-9.4941h0.49414a0.50538 0.50538 0 0 0 0.50586-0.50586v-3.9883a0.50538 0.50538 0 0 0-0.50586-0.50586h-2.8223c0.13697-0.10064 0.27867-0.19321 0.40234-0.3125a0.50429 0.50799 0 0 0 2e-3 -0.00195c0.80722-0.78746 1.2014-2.0057 0.70112-3.0703-0.50262-1.0719-1.7009-1.6186-2.8906-1.6152zm-0.009766 1.0215c0.85106 0.011548 1.7187 0.44398 1.9922 1.0273 0.27918 0.59412 0.06196 1.3663-0.49024 1.9062h-2e-3v0.00195c-0.57539 0.55393-1.4725 0.88109-2.4023 0.98047a0.50429 0.50799 0 0 0-0.0039 0c-0.74708 0.086637-1.5464-0.014021-2.3438-0.11133 0.06721-0.78474 0.1624-1.5719 0.56641-2.2266 0.48374-0.7751 1.3472-1.4226 2.3223-1.5566 0.11922-0.016386 0.23975-0.023134 0.36133-0.021484zm-7.7578 0.00586c0.12116-0.0012 0.24267 0.00627 0.36133 0.023437a0.50429 0.50799 0 0 0 0.00391 0c0.97377 0.13385 1.829 0.77956 2.3223 1.5508 0.40332 0.65424 0.49925 1.4405 0.56641 2.2246-0.79806 0.097715-1.5982 0.19985-2.3477 0.11914-0.92986-0.099373-1.827-0.42655-2.4023-0.98047l-0.00195-0.00195c-0.5522-0.54-0.7675-1.3121-0.48828-1.9063 0.27392-0.58423 1.1382-1.0209 1.9863-1.0293zm-4.1094 4.9824h5.4844v2.9805h-5.4844zm6.4961 0h2.9883v12.98h-2.9883zm4 0h5.4844v2.9805h-5.4844zm-9.4961 3.9902h4.4844v8.9902h-4.4844zm9.4961 0h4.4844v8.9902h-4.4844z"/></svg>
