<?xml version="1.0" encoding="UTF-8"?>
<svg width="19" height="19" version="1.1" viewBox="0 0 19 19" xmlns="http://www.w3.org/2000/svg"><path d="m9.5 1c-0.27614 0-0.5 0.22386-0.5 0.5v10.793l-2.1465-2.1465c-0.099417-0.099732-0.23628-0.15292-0.37695-0.14648-0.12443 6e-3 -0.24214 0.05824-0.33008 0.14648-0.19521 0.19525-0.19521 0.51178 0 0.70703l3 3c0.00822 0.0074 0.016691 0.0146 0.02539 0.02148 0.00635 6e-3 0.012867 0.01189 0.01953 0.01758 0.010744 0.0083 0.02182 0.01608 0.0332 0.02344 0.00767 0.0054 0.015481 0.01064 0.02344 0.01563 0.013334 0.0078 0.027022 0.01496 0.04102 0.02148 0.00259 0.0013 0.00519 0.0026 0.0078 0.0039 0.010899 5e-3 0.021973 0.0095 0.0332 0.01367 0.012213 0.0044 0.024593 0.0083 0.03711 0.01172 0.0013 5e-6 0.0026 5e-6 0.0039 0 0.00196 6.79e-4 0.00393 0.0013 0.0059 2e-3 0.012911 0.0031 0.025942 0.0057 0.03906 0.0078 0.012964 0.0018 0.025994 0.0031 0.03906 0.0039 0.00326 6.99e-4 0.00653 0.0014 0.0098 2e-3 0.00197 1.2e-5 0.00393 1.2e-5 0.0059 0 0.00971 9.13e-4 0.019454 0.0015 0.029206 0.0019 0.0026 2e-5 0.0052 2e-5 0.0078 0 0.013066-7.88e-4 0.026096-0.0021 0.03906-0.0039 0.00391 4.6e-5 0.00781 4.6e-5 0.01172 0 0.00784-0.0011 0.015659-0.0024 0.02344-0.0039 0.011786-0.0015 0.023514-0.0035 0.03516-0.0059 0.00328-0.0013 0.00655-0.0026 0.0098-0.0039 0.011176-0.0029 0.02225-0.0062 0.0332-0.0098 0.00457-0.0012 0.00913-0.0025 0.01367-0.0039 0.0079-0.0031 0.015711-0.0063 0.02344-0.0098 0.010569-0.0042 0.020992-0.0088 0.03125-0.01367 0.00725-0.0037 0.014417-0.0076 0.02148-0.01172 0.00999-0.0062 0.019766-0.01268 0.0293-0.01953 0.0033-0.0026 0.00657-0.0052 0.0098-0.0078 0.0046-0.0025 0.00915-0.0051 0.01367-0.0078 0.013579-0.01039 0.026616-0.02147 0.03906-0.0332 0.00131-0.0013 0.00261-0.0026 0.0039-0.0039 0.00263-0.0026 0.00523-0.0052 0.0078-0.0078 0.00535-0.0057 0.010559-0.0116 0.01563-0.01758l2.9844-2.9824c0.19521-0.19525 0.19521-0.51178 0-0.70703-0.19525-0.19521-0.51178-0.19521-0.70703 0l-2.1465 2.1465v-10.793c0-0.27614-0.22386-0.5-0.5-0.5zm-8 11c-0.27614 0-0.5 0.22386-0.5 0.5v5c2.76e-5 0.27613 0.22387 0.49997 0.5 0.5h16c0.27613-2.8e-5 0.49997-0.22387 0.5-0.5v-5c0-0.27614-0.22386-0.5-0.5-0.5s-0.5 0.22386-0.5 0.5v4.5h-15v-4.5c0-0.27614-0.22386-0.5-0.5-0.5z"/></svg>
