<?xml version="1.0" encoding="UTF-8"?>
<svg width="19" height="19" version="1.1" viewBox="0 0 19 19" xmlns="http://www.w3.org/2000/svg"><path d="m6.2266 0c-0.7 0-1.2266 0.61285-1.2266 1.3008v2.6992h-3.7168c-0.6985 0-1.2832 0.56898-1.2832 1.2695v8.4609c0 0.70055 0.5847 1.2695 1.2832 1.2695h3.7168v2.7227c0 0.6828 0.5349 1.2773 1.2266 1.2773h6.5469c0.69167 0 1.2266-0.59455 1.2266-1.2773v-2.7227h3.7168c0.6985 0 1.2832-0.56898 1.2832-1.2695v-8.4609c0-0.70055-0.5847-1.2695-1.2832-1.2695h-3.7168v-2.6992c0-0.68793-0.52656-1.3008-1.2266-1.3008zm0 1h6.5469c0.099998 0 0.22656 0.10872 0.22656 0.30078v2.6992h-7v-2.6992c0-0.19207 0.12656-0.30078 0.22656-0.30078zm-4.9434 4h2.7168v2.6992c0 0.70224 0.56282 1.3008 1.2695 1.3008h8.4609c0.70671 0 1.2695-0.59854 1.2695-1.3008v-2.6992h2.7168c0.16237 0 0.2832 0.12393 0.2832 0.26953v8.4609c0 0.14561-0.12083 0.26953-0.2832 0.26953h-3.7168v-2.5a0.50005 0.50005 0 0 0-0.5-0.5h-8a0.50005 0.50005 0 0 0-0.5 0.5v2.5h-3.7168c-0.16237 0-0.2832-0.12392-0.2832-0.26953v-8.4609c0-0.1456 0.12083-0.26953 0.2832-0.26953zm3.7168 0h9v2.6992c0 0.17776-0.13009 0.30078-0.26953 0.30078h-8.4609c-0.13944 0-0.26953-0.12302-0.26953-0.30078zm11.75 1c-0.4142 0-0.75 0.33578-0.75 0.75s0.3358 0.75 0.75 0.75 0.75-0.33578 0.75-0.75-0.3358-0.75-0.75-0.75zm-10.75 6h7v5.7227c0 0.17276-0.11823 0.27734-0.22656 0.27734h-6.5469c-0.10833 0-0.22656-0.10458-0.22656-0.27734zm1.5 1a0.5 0.5 0 0 0-0.5 0.5 0.5 0.5 0 0 0 0.5 0.5h4a0.5 0.5 0 0 0 0.5-0.5 0.5 0.5 0 0 0-0.5-0.5zm0 1.5a0.5 0.5 0 0 0-0.5 0.5 0.5 0.5 0 0 0 0.5 0.5h4a0.5 0.5 0 0 0 0.5-0.5 0.5 0.5 0 0 0-0.5-0.5zm0 1.5a0.5 0.5 0 0 0-0.5 0.5 0.5 0.5 0 0 0 0.5 0.5h4a0.5 0.5 0 0 0 0.5-0.5 0.5 0.5 0 0 0-0.5-0.5z"/></svg>
