<?xml version="1.0" encoding="UTF-8"?>
<svg width="24" height="24" version="1.1" viewBox="0 0 24 24" xmlns="http://www.w3.org/2000/svg"><path d="m11.994 2.5137c-0.46182 5.462e-4 -0.92132 0.23212-1.1484 0.69531l-0.001953 0.0019531-2.3965 4.8008-5.3574 0.77344c-1.0237 0.14414-1.4641 1.4728-0.71289 2.1895l3.8691 3.7402-0.91406 5.2754a0.50005 0.50005 0 0 0 0 0.003907c-0.17183 1.0193 0.95524 1.8313 1.873 1.3516l4.791-2.4961 4.7988 2.4883c0.91778 0.47975 2.0448-0.33424 1.873-1.3535a0.50005 0.50005 0 0 0 0-0.001953l-0.91406-5.2754 3.8691-3.7324c0.75125-0.71663 0.31084-2.0453-0.71289-2.1895h-0.001953l-5.3555-0.77344-2.3984-4.8027c-0.23133-0.46393-0.6965-0.69586-1.1602-0.69531zm0.003906 0.96484c0.10105 2.341e-4 0.20348 0.058982 0.26172 0.17578l2.5156 5.0391a0.50005 0.50005 0 0 0 0.375 0.27148l5.6172 0.81055a0.50005 0.50005 0 0 0 0.001953 0c0.26562 0.037037 0.3556 0.29385 0.16406 0.47656a0.50005 0.50005 0 0 0-0.001953 0.001953l-4.0625 3.918a0.50005 0.50005 0 0 0-0.14648 0.44531l0.96094 5.5371-0.001953-0.001953c0.043254 0.25662-0.18356 0.42442-0.42383 0.29883a0.50005 0.50005 0 0 0-0.001953 0l-5.0293-2.6094a0.50005 0.50005 0 0 0-0.46094 0l-5.0215 2.6172a0.50005 0.50005 0 0 0-0.0019531 0c-0.24036 0.12563-0.46709-0.04219-0.42383-0.29883l-0.0019532 0.001953 0.96094-5.5371a0.50005 0.50005 0 0 0-0.14648-0.44531l-4.0605-3.9258a0.50005 0.50005 0 0 0-0.0039063-0.001953c-0.19148-0.18268-0.10156-0.43952 0.16406-0.47656a0.50005 0.50005 0 0 0 0.0019531 0l5.6172-0.81055a0.50005 0.50005 0 0 0 0.375-0.27148l2.5156-5.0391a0.50005 0.50005 0 0 0 0.001954-0.0039063c0.055132-0.11383 0.15481-0.17211 0.25586-0.17188z"/></svg>
