<?xml version="1.0" encoding="UTF-8"?>
<svg width="24" height="24" version="1.1" viewBox="0 0 24 24" xmlns="http://www.w3.org/2000/svg"><path d="m12.002 3c-4.9645 0-8.9998 4.0354-8.9998 9 0 0.81118 0.11644 1.5938 0.31835 2.3418-1.1082 0.98213-2.0043 1.8957-2.5761 2.6855-0.30793 0.42531-0.53211 0.81524-0.65428 1.1992-0.12197 0.38334-0.14123 0.80465 0.078123 1.1562 0.2184 0.35321 0.60667 0.52339 1.0058 0.58398 0.39916 0.0606 0.84962 0.03274 1.3672-0.05664 0.96242-0.16622 2.1766-0.5716 3.5507-1.1387 1.5827 1.3831 3.6467 2.2285 5.91 2.2285 4.9645 0 8.9998-4.0354 8.9998-9 0-0.81201-0.118-1.595-0.3203-2.3438 1.1074-0.98171 2.0025-1.894 2.5742-2.6836 0.30793-0.42531 0.53211-0.81524 0.65428-1.1992 0.12217-0.38398 0.1424-0.80625-0.078123-1.1582-0.21867-0.35157-0.60563-0.52353-1.0039-0.58398-0.39916-0.060596-0.84962-0.030788-1.3672 0.058594-0.96148 0.16605-2.1763 0.57056-3.5487 1.1367-1.5826-1.3826-3.6472-2.2266-5.91-2.2266zm0 1c2.1069 0 4.0157 0.8171 5.4432 2.1445 0.0078 0.00722 0.0157 0.014235 0.02344 0.021484a0.49989 0.49997 0 0 0 0.02344 0.023437c0.9121 0.86201 1.6198 1.9338 2.0468 3.1426-1.6852 1.4363-3.8617 3.0302-6.3436 4.584-2.4808 1.5531-4.8701 2.8062-6.9002 3.6895-0.87221-0.88799-1.5385-1.9778-1.9218-3.1953a0.49989 0.49997 0 0 0-0.0293-0.10156c-0.21959-0.73127-0.34179-1.505-0.34179-2.3086 0-4.4242 3.5757-8 7.9998-8zm10.234 1.0039c0.17629-0.00829 0.32604-0.00189 0.4414 0.015625 0.2307 0.035023 0.29008 0.09628 0.30663 0.12305a0.49994 0.50002 0 0 0 0 0.00195c0.01443 0.023025 0.04551 0.10331-0.02539 0.32617-0.07091 0.22286-0.24422 0.54387-0.51366 0.91602-0.44597 0.61596-1.2028 1.3942-2.1113 2.2266-0.39479-0.96819-0.95457-1.8492-1.6425-2.6152 1.1531-0.4544 2.1886-0.79416 2.9394-0.92383 0.22613-0.039054 0.42916-0.062027 0.60545-0.070313zm-2.3984 5.377c0.10722 0.52307 0.16406 1.064 0.16406 1.6191 0 4.4242-3.5757 8-7.9998 8-1.8427 0-3.5334-0.62629-4.8846-1.6699 1.9905-0.8936 4.2556-2.0929 6.6092-3.5664 2.3565-1.4753 4.4319-2.9845 6.1112-4.3828zm-16.17 5.0039c0.39449 0.96823 0.95487 1.8491 1.6425 2.6152-1.1545 0.45443-2.1901 0.79408-2.9413 0.92383-0.45226 0.07811-0.81615 0.09165-1.0468 0.05664-0.2307-0.03503-0.28813-0.09628-0.30468-0.12305a0.49994 0.50002 0 0 0-0.00195-2e-3c-0.014427-0.02303-0.043567-0.10331 0.027343-0.32617 0.07091-0.22286 0.24226-0.54387 0.51171-0.91602 0.4462-0.61627 1.2037-1.3956 2.1132-2.2285z"/></svg>
