<?xml version="1.0" encoding="UTF-8"?>
<svg width="31" height="28" version="1.1" viewBox="0 0 31 28" xmlns="http://www.w3.org/2000/svg"><path d="m15.5 1a0.5 0.5 0 0 0-0.5 0.5v2.5a0.5 0.5 0 0 0 0.5 0.5 0.5 0.5 0 0 0 0.5-0.5v-2.5a0.5 0.5 0 0 0-0.5-0.5zm-5.5527 1.1035a0.5 0.5 0 0 0-0.18555 0.039062 0.5 0.5 0 0 0-0.26953 0.65234l0.95703 2.3105a0.5 0.5 0 0 0 0.6543 0.26953 0.5 0.5 0 0 0 0.26953-0.6543l-0.95703-2.3086a0.5 0.5 0 0 0-0.46875-0.30859zm11.117 0a0.5 0.5 0 0 0-0.058594 0.0019532 0.5 0.5 0 0 0-0.42188 0.30664l-0.95703 2.3086a0.5 0.5 0 0 0 0.26953 0.6543 0.5 0.5 0 0 0 0.6543-0.26953l0.95703-2.3105a0.5 0.5 0 0 0-0.26953-0.65234 0.5 0.5 0 0 0-0.17383-0.039062zm-15.842 3.125a0.5 0.5 0 0 0-0.32812 0.14844 0.5 0.5 0 0 0 0 0.70703l1.7793 1.7695a0.5 0.5 0 0 0 0.70703-0.0019531 0.5 0.5 0 0 0-0.0019532-0.70703l-1.7773-1.7695a0.5 0.5 0 0 0-0.37891-0.14648zm20.506 0a0.5 0.5 0 0 0-0.33008 0.14648l-1.7773 1.7695a0.5 0.5 0 0 0-0.001953 0.70703 0.5 0.5 0 0 0 0.70703 0.0019531l1.7773-1.7695a0.5 0.5 0 0 0 0.001953-0.70703 0.5 0.5 0 0 0-0.37695-0.14844zm-13.086 1.7715a0.50005 0.50005 0 0 0-0.48633 0.38867l-1.1445 5a0.50005 0.50005 0 0 0 0.48828 0.61133h8a0.50005 0.50005 0 0 0 0.48828-0.61133l-1.1445-5a0.50005 0.50005 0 0 0-0.48633-0.38867h-5.7148zm0.39844 1h4.918l0.91406 4h-6.7461l0.91406-4zm-10.914 1.9102a0.5 0.5 0 0 0-0.47852 0.30859 0.5 0.5 0 0 0 0.27148 0.65234l2.3203 0.95508a0.5 0.5 0 0 0 0.65234-0.27344 0.5 0.5 0 0 0-0.27344-0.65234l-2.3184-0.95313a0.5 0.5 0 0 0-0.17383-0.037109zm26.76 0a0.5 0.5 0 0 0-0.1875 0.037109l-2.3184 0.95313a0.5 0.5 0 0 0-0.27344 0.65234 0.5 0.5 0 0 0 0.65234 0.27344l2.3203-0.95508a0.5 0.5 0 0 0 0.27148-0.65234 0.5 0.5 0 0 0-0.46484-0.30859zm-21.244 4.0898a0.50005 0.50005 0 0 0-0.48633 0.38867l-1.1445 5a0.50005 0.50005 0 0 0 0.48828 0.61133h8a0.50005 0.50005 0 0 0 0.48828-0.61133l-1.1445-5a0.50005 0.50005 0 0 0-0.48633-0.38867h-5.7148zm10 0a0.50005 0.50005 0 0 0-0.48633 0.38867l-1.1445 5a0.50005 0.50005 0 0 0 0.48828 0.61133h8a0.50005 0.50005 0 0 0 0.48828-0.61133l-1.1445-5a0.50005 0.50005 0 0 0-0.48633-0.38867h-5.7148zm-9.6016 1h4.918l0.91406 4h-6.7461l0.91406-4zm10 0h4.918l0.91406 4h-6.7461l0.91406-4zm-15.398 6a0.50005 0.50005 0 0 0-0.48633 0.38867l-1.1445 5a0.50005 0.50005 0 0 0 0.48828 0.61133h8a0.50005 0.50005 0 0 0 0.48828-0.61133l-1.1445-5a0.50005 0.50005 0 0 0-0.48633-0.38867h-5.7148zm10 0a0.50005 0.50005 0 0 0-0.48633 0.38867l-1.1445 5a0.50005 0.50005 0 0 0 0.48828 0.61133h8a0.50005 0.50005 0 0 0 0.48828-0.61133l-1.1445-5a0.50005 0.50005 0 0 0-0.48633-0.38867h-5.7148zm10 0a0.50005 0.50005 0 0 0-0.48633 0.38867l-1.1445 5a0.50005 0.50005 0 0 0 0.48828 0.61133h8a0.50005 0.50005 0 0 0 0.48828-0.61133l-1.1445-5a0.50005 0.50005 0 0 0-0.48633-0.38867h-5.7148zm-19.602 1h4.918l0.91406 4h-6.7461l0.91406-4zm10 0h4.918l0.91406 4h-6.7461l0.91406-4zm10 0h4.918l0.91406 4h-6.7461l0.91406-4z"/></svg>
