<?xml version="1.0" encoding="UTF-8"?>
<svg width="50" height="44" version="1.1" viewBox="0 0 50 44" xmlns="http://www.w3.org/2000/svg"><path d="m15 0-0.47461 1.4629-3.0664 9.4355h-11.459l9.2695 6.7344-3.541 10.898 9.2715-6.7344 9.2695 6.7344-3.5391-10.898 9.2695-6.7344h-11.459l-3.541-10.898zm0 3.2344 2.5918 7.9785 0.22266 0.68555h0.7207 8.3887l-6.7871 4.9297-0.58203 0.42383 0.22266 0.68555 2.5918 7.9766-6.7852-4.9297-0.58398-0.42383-0.58398 0.42383-6.7852 4.9297 2.5918-7.9766 0.22266-0.68555-0.58203-0.42383-6.7871-4.9297h8.3887 0.7207l0.22266-0.68555 2.5918-7.9785zm25 16.766-0.47461 1.4629-1.8867 5.8027h-7.6387l6.1797 4.4902-2.3594 7.2656 6.1797-4.4902 6.1797 4.4902-2.3594-7.2656 6.1797-4.4902h-7.6387l-2.3613-7.2656zm0 3.2344 1.4102 4.3398 0.22461 0.69141h0.72656 4.5605l-3.6895 2.6797-0.58789 0.42774 0.22461 0.69141 1.4082 4.3379-3.6895-2.6797-0.58789-0.42773-0.58789 0.42773-3.6895 2.6797 1.4082-4.3379 0.22461-0.69141-0.58789-0.42774-3.6895-2.6797h4.5605 0.72656l0.22461-0.69141 1.4102-4.3398zm-24.5 8.4023-0.47461 1.4629-1.0527 3.2363-0.007812 0.023437h-0.023438-4.9414l3.9961 2.9043 0.021484 0.013672-0.007812 0.023437-1.5273 4.6992 3.998-2.9043 0.019531-0.013672 0.019531 0.013672 3.998 2.9043-1.5273-4.6992-0.007812-0.023437 0.021484-0.013672 3.9961-2.9043h-4.9414-0.023438l-0.007812-0.023437-1.5273-4.6992zm0 3.2324 0.57617 1.7754 0.23242 0.71484h0.75 1.8633l-1.5059 1.0938-0.60938 0.44141 0.23242 0.71484 0.57617 1.7734-2.1152-1.5371-2.1152 1.5371 0.57617-1.7734 0.23242-0.71484-0.60938-0.44141-1.5059-1.0938h1.8633 0.75l0.23242-0.71484 0.57617-1.7754z"/></svg>
