<?xml version="1.0" encoding="UTF-8"?>
<svg width="24" height="24" version="1.1" viewBox="0 0 24 24" xmlns="http://www.w3.org/2000/svg"><path d="m10.5 0a0.50005 0.50005 0 0 0-0.49219 0.41406l-0.52344 2.9961c-0.62776 0.18241-1.2211 0.43208-1.7773 0.73828l-2.4902-1.7461a0.50005 0.50005 0 0 0-0.64062 0.054687l-2.1191 2.1211a0.50005 0.50005 0 0 0-0.056641 0.64258l1.7539 2.4902c-0.3112 0.55925-0.55924 1.1537-0.74414 1.7773l-2.9961 0.52344a0.50005 0.50005 0 0 0-0.41406 0.49219v3.002a0.50005 0.50005 0 0 0 0.41406 0.49219l2.9961 0.52344c0.18499 0.62415 0.43114 1.2191 0.73633 1.7773l-1.7559 2.4922a0.50005 0.50005 0 0 0 0.056641 0.64062l2.1191 2.1211a0.50005 0.50005 0 0 0 0.64258 0.054688l2.4883-1.7539c0.56046 0.30552 1.1551 0.55384 1.7773 0.73633l0.52344 2.9961a0.50005 0.50005 0 0 0 0.49219 0.41406h3a0.50005 0.50005 0 0 0 0.49219-0.41406l0.52344-2.998c0.62642-0.18221 1.2202-0.43083 1.7754-0.73633l2.4902 1.7559a0.50005 0.50005 0 0 0 0.64258-0.054688l2.1191-2.1211a0.50005 0.50005 0 0 0 0.054688-0.64062l-1.7539-2.4922c0.3055-0.56082 0.55387-1.1547 0.73633-1.7773l3.0156-0.52344a0.50005 0.50005 0 0 0 0.41406-0.49219v-3.002a0.50005 0.50005 0 0 0-0.41406-0.49219l-2.9961-0.52344c-0.18212-0.62665-0.43098-1.22-0.73633-1.7754l1.7559-2.4922a0.50005 0.50005 0 0 0-0.056641-0.64258l-2.1191-2.1211a0.50005 0.50005 0 0 0-0.64258-0.054687l-2.4883 1.7539c-0.56046-0.30552-1.1551-0.55384-1.7773-0.73633l-0.5332-3.0078a0.50005 0.50005 0 0 0-0.49219-0.41211h-3zm0.41992 1h2.1602l0.50781 2.8594a0.50005 0.50005 0 0 0 0.37305 0.39648c0.75731 0.18707 1.4819 0.49853 2.1543 0.89648a0.50005 0.50005 0 0 0 0.54297-0.021484l2.3652-1.668 1.5254 1.5254-1.668 2.3672a0.50005 0.50005 0 0 0-0.019531 0.54492c0.39623 0.66068 0.7055 1.385 0.89258 2.1523a0.50005 0.50005 0 0 0 0.40039 0.37305l2.8457 0.49805v2.1621l-2.8652 0.49805a0.50005 0.50005 0 0 0-0.40039 0.37305c-0.187 0.7577-0.49674 1.4835-0.89453 2.1562a0.50005 0.50005 0 0 0 0.021484 0.54102l1.668 2.3672-1.5254 1.5254-2.3652-1.668a0.50005 0.50005 0 0 0-0.54688-0.019531c-0.66036 0.39639-1.3834 0.70543-2.1504 0.89258a0.50005 0.50005 0 0 0-0.37305 0.40039l-0.49805 2.8477h-2.1602l-0.49805-2.8477a0.50005 0.50005 0 0 0-0.37305-0.39844c-0.75731-0.18707-1.4819-0.49853-2.1543-0.89648a0.50005 0.50005 0 0 0-0.54297 0.021484l-2.3652 1.668-1.5254-1.5254 1.668-2.3672a0.50005 0.50005 0 0 0 0.019531-0.54492c-0.39443-0.65767-0.69614-1.3832-0.89453-2.1582a0.50005 0.50005 0 0 0-0.39844-0.36719l-2.8457-0.49805v-2.1621l2.8457-0.49805a0.50005 0.50005 0 0 0 0.39844-0.36719c0.19839-0.77499 0.50002-1.4991 0.90234-2.1543a0.50005 0.50005 0 0 0-0.017578-0.54883l-1.668-2.3672 1.5254-1.5273 2.3672 1.6602a0.50005 0.50005 0 0 0 0.54297 0.019531c0.66036-0.39639 1.3854-0.70543 2.1523-0.89258a0.50005 0.50005 0 0 0 0.37305-0.40039l0.49805-2.8477zm1.0801 5c-3.3078 0-6 2.6922-6 6 0 3.3078 2.6922 6 6 6 3.3078 0 6-2.6922 6-6 0-3.3078-2.6922-6-6-6zm0 1c2.7674 0 5 2.2326 5 5 0 2.7674-2.2326 5-5 5-2.7674 0-5-2.2326-5-5 0-2.7674 2.2326-5 5-5zm0 2c-1.6509 0-3 1.3491-3 3s1.3491 3 3 3 3-1.3491 3-3-1.3491-3-3-3zm0 1c1.1105 0 2 0.88952 2 2s-0.88952 2-2 2-2-0.88952-2-2 0.88952-2 2-2z"/></svg>
