<?xml version="1.0" encoding="UTF-8"?>
<svg width="24" height="24" version="1.1" viewBox="0 0 24 24" xmlns="http://www.w3.org/2000/svg"><path d="m11.994 0c-0.5241 5.5763e-4 -1.0465 0.26587-1.3008 0.79688l-2.9238 5.9258-6.5371 0.95312c-1.1622 0.16648-1.6531 1.6657-0.80469 2.4844l4.7246 4.6191-1.1172 6.5176a0.50005 0.50005 0 0 0 0 0.003906c-0.19301 1.1581 1.0765 2.0853 2.1172 1.5352l5.8438-3.0801 5.8516 3.0703v-0.001953c1.0407 0.5501 2.3102-0.37709 2.1172-1.5352a0.50005 0.50005 0 0 0 0-0.001953l-1.1172-6.5176 4.7246-4.6094c0.84844-0.81869 0.35753-2.3179-0.80469-2.4844l-6.5371-0.95312-2.9258-5.9316c-0.26033-0.52811-0.78644-0.79157-1.3105-0.79102zm0.003906 0.95898c0.15903 5.5763e-4 0.32016 0.092827 0.41016 0.27539l3.043 6.166a0.50005 0.50005 0 0 0 0.375 0.27344l6.7969 0.99023a0.50005 0.50005 0 0 0 0.001953 0c0.39698 0.055986 0.54576 0.49573 0.25391 0.77734a0.50005 0.50005 0 0 0-0.001953 0.0019532l-4.916 4.7949a0.50005 0.50005 0 0 0-0.14258 0.44141l1.1602 6.7773c0.065494 0.40219-0.30414 0.67462-0.66406 0.48438a0.50005 0.50005 0 0 0-0.001953-0.001953l-6.0859-3.1914a0.50005 0.50005 0 0 0-0.46484 0l-6.0762 3.2031c-0.35992 0.19025-0.72956-0.082186-0.66406-0.48438v-0.001953l1.1602-6.7754a0.50005 0.50005 0 0 0-0.14258-0.44141l-4.9141-4.8047a0.50005 0.50005 0 0 0-0.0039062-0.0019532c-0.29185-0.28162-0.14308-0.72136 0.25391-0.77734a0.50005 0.50005 0 0 0 0.0019531 0l6.7969-0.99023a0.50005 0.50005 0 0 0 0.375-0.27344l3.043-6.166a0.50005 0.50005 0 0 0 0.003906-0.0058594c0.086038-0.17967 0.24331-0.27009 0.40234-0.26953z"/></svg>
