<?xml version="1.0" encoding="UTF-8"?>
<svg width="20" height="20" version="1.1" viewBox="0 0 20 20" xmlns="http://www.w3.org/2000/svg"><path d="m1.5 2a0.50005 0.50005 0 0 0-0.5 0.5v3a0.50005 0.50005 0 0 0 0.5 0.5h3a0.50005 0.50005 0 0 0 0.5-0.5v-3a0.50005 0.50005 0 0 0-0.5-0.5h-3zm0.5 1h2v2h-2v-2zm4.5 0a0.5 0.5 0 0 0-0.5 0.5 0.5 0.5 0 0 0 0.5 0.5h12a0.5 0.5 0 0 0 0.5-0.5 0.5 0.5 0 0 0-0.5-0.5h-12zm0 2a0.5 0.5 0 0 0-0.5 0.5 0.5 0.5 0 0 0 0.5 0.5h12a0.5 0.5 0 0 0 0.5-0.5 0.5 0.5 0 0 0-0.5-0.5h-12zm-5 3a0.50005 0.50005 0 0 0-0.5 0.5v3a0.50005 0.50005 0 0 0 0.5 0.5h3a0.50005 0.50005 0 0 0 0.5-0.5v-3a0.50005 0.50005 0 0 0-0.5-0.5h-3zm0.5 1h2v2h-2v-2zm4.5 0a0.5 0.5 0 0 0-0.5 0.5 0.5 0.5 0 0 0 0.5 0.5h12a0.5 0.5 0 0 0 0.5-0.5 0.5 0.5 0 0 0-0.5-0.5h-12zm0 2a0.5 0.5 0 0 0-0.5 0.5 0.5 0.5 0 0 0 0.5 0.5h12a0.5 0.5 0 0 0 0.5-0.5 0.5 0.5 0 0 0-0.5-0.5h-12zm-5 3a0.50005 0.50005 0 0 0-0.5 0.5v3a0.50005 0.50005 0 0 0 0.5 0.5h3a0.50005 0.50005 0 0 0 0.5-0.5v-3a0.50005 0.50005 0 0 0-0.5-0.5h-3zm0.5 1h2v2h-2v-2zm4.5 0a0.5 0.5 0 0 0-0.5 0.5 0.5 0.5 0 0 0 0.5 0.5h12a0.5 0.5 0 0 0 0.5-0.5 0.5 0.5 0 0 0-0.5-0.5h-12zm0 2a0.5 0.5 0 0 0-0.5 0.5 0.5 0.5 0 0 0 0.5 0.5h12a0.5 0.5 0 0 0 0.5-0.5 0.5 0.5 0 0 0-0.5-0.5h-12z"/></svg>
