<?xml version="1.0" encoding="UTF-8"?>
<svg width="20" height="20" version="1.1" viewBox="0 0 20 20" xmlns="http://www.w3.org/2000/svg"><path d="m16.5 0c-1.938-1.7309e-16 -3.5 1.6352-3.5 3.6133 0 0.57618 0.21763 1.1879 0.51172 1.8496s0.67714 1.3572 1.0586 1.9961c0.76291 1.2779 1.5234 2.334 1.5234 2.334a0.50005 0.50005 0 0 0 0.8125 0s0.76061-1.0572 1.5234-2.3359c0.38142-0.63935 0.76454-1.3348 1.0586-1.9961s0.51172-1.2727 0.51172-1.8477c0-1.9781-1.562-3.6133-3.5-3.6133zm0 1c1.3769 0 2.5 1.1563 2.5 2.6133 0 0.28382-0.15733 0.83773-0.42578 1.4414s-0.63532 1.2708-1.0039 1.8887c-0.53442 0.89582-0.81615 1.2776-1.0703 1.6426-0.25409-0.36432-0.53587-0.74348-1.0703-1.6387-0.36855-0.61732-0.7355-1.2867-1.0039-1.8906-0.26841-0.60393-0.42578-1.157-0.42578-1.4434 0-1.4569 1.1231-2.6133 2.5-2.6133zm0 1.25c-0.68442 0-1.25 0.56556-1.25 1.25s0.56558 1.25 1.25 1.25c0.68445 0 1.25-0.56556 1.25-1.25s-0.56555-1.25-1.25-1.25zm0 1c0.14405 0 0.25 0.10601 0.25 0.25s-0.10595 0.25-0.25 0.25c-0.1439 0-0.25-0.10601-0.25-0.25s0.1061-0.25 0.25-0.25zm-12 1.75c-2.4695 0-4.5 1.919-4.5 4.3086-2.4062e-16 0.68493 0.28618 1.4273 0.67578 2.2305 0.3896 0.80313 0.89911 1.6494 1.4062 2.4277 1.0143 1.5566 2.0254 2.8418 2.0254 2.8418a0.50005 0.50005 0 0 0 0.78516 0s1.0111-1.2852 2.0254-2.8418c0.50714-0.77832 1.0167-1.6246 1.4062-2.4277 0.3896-0.80313 0.67578-1.5455 0.67578-2.2305 0-2.3896-2.0305-4.3086-4.5-4.3086zm0 1c1.9572 0 3.5 1.4843 3.5 3.3086 0 0.36851-0.21382 1.05-0.57422 1.793-0.3604 0.74295-0.85089 1.5639-1.3438 2.3203-0.78971 1.212-1.2985 1.8499-1.582 2.2188-0.28352-0.36882-0.79233-1.0068-1.582-2.2188-0.49286-0.7564-0.98335-1.5774-1.3438-2.3203-0.3604-0.74295-0.57422-1.4245-0.57422-1.793 0-1.8243 1.5428-3.3086 3.5-3.3086zm0 1.5391c-0.99361 0-1.834 0.78469-1.834 1.7695 0 0.98483 0.84037 1.7676 1.834 1.7676s1.834-0.78274 1.834-1.7676c0-0.98485-0.84037-1.7695-1.834-1.7695zm0 1c0.47915 0 0.83398 0.35242 0.83398 0.76953 0 0.41708-0.35484 0.76758-0.83398 0.76758-0.47914 0-0.83398-0.3505-0.83398-0.76758 0-0.41711 0.35484-0.76953 0.83398-0.76953zm12.789 1.6504a0.5 0.5 0 0 0-0.47461 0.31641 0.5 0.5 0 0 0 0.2793 0.64844c0.1069 0.042453 0.21637 0.09219 0.32617 0.15039a0.5 0.5 0 0 0 0.23242 0.058593 0.5 0.5 0 0 0 0.16602 0.17188c0.25412 0.15871 0.48442 0.3447 0.66992 0.55664a0.5 0.5 0 0 0 0.70508 0.046875 0.5 0.5 0 0 0 0.046875-0.70508c-0.26267-0.30011-0.5706-0.545-0.89258-0.74609a0.5 0.5 0 0 0-0.26367-0.076172 0.5 0.5 0 0 0-0.19726-0.18945c-0.14-0.074201-0.28093-0.14052-0.42383-0.19727a0.5 0.5 0 0 0-0.17383-0.035156zm2.0566 1.9453a0.5 0.5 0 0 0-0.12891 0.027343 0.5 0.5 0 0 0-0.30859 0.63672c0.086216 0.24661 0.11317 0.51353 0.070313 0.75195a0.5 0.5 0 0 0 0.4043 0.58008 0.5 0.5 0 0 0 0.58008-0.40234c0.077512-0.43122 0.028164-0.8644-0.10938-1.2578a0.5 0.5 0 0 0-0.44922-0.33594 0.5 0.5 0 0 0-0.058594 0zm-0.36523 1.8984a0.5 0.5 0 0 0-0.32812 0.15234c-0.16529 0.17103-0.39738 0.30138-0.65625 0.38086a0.5 0.5 0 0 0-0.33203 0.625 0.5 0.5 0 0 0 0.625 0.33203c0.38936-0.11955 0.77329-0.32312 1.082-0.64258a0.5 0.5 0 0 0-0.011719-0.70703 0.5 0.5 0 0 0-0.37891-0.14062zm-3.8633 0.39844c-0.4014-0.004232-0.79474 0.064434-1.1641 0.18555a0.5 0.5 0 0 0-0.32031 0.63086 0.5 0.5 0 0 0 0.63086 0.31836c0.27635-0.090624 0.56281-0.13771 0.8418-0.13476a0.5 0.5 0 0 0 0.50586-0.49609 0.5 0.5 0 0 0-0.49414-0.50391zm0.9707 0.11328a0.5 0.5 0 0 0-0.45703 0.41797 0.5 0.5 0 0 0 0.41016 0.57617c0.32732 0.054473 0.68574 0.12461 1.0801 0.13477a0.5 0.5 0 0 0 0.51367-0.48828 0.5 0.5 0 0 0-0.48633-0.51172c-0.28636-0.007375-0.60084-0.066046-0.94336-0.12305a0.5 0.5 0 0 0-0.058594-0.005859 0.5 0.5 0 0 0-0.058593 0zm-2.918 0.47852a0.5 0.5 0 0 0-0.23828 0.068359c-0.31883 0.18889-0.61288 0.4032-0.89062 0.62305a0.5 0.5 0 0 0-0.082032 0.70117 0.5 0.5 0 0 0 0.70312 0.082031c0.2551-0.20192 0.51306-0.38719 0.7793-0.54492a0.5 0.5 0 0 0 0.17578-0.68555 0.5 0.5 0 0 0-0.44727-0.24414zm-1.584 1.2344a0.5 0.5 0 0 0-0.058594 0.001954 0.5 0.5 0 0 0-0.28125 0.11719c-0.25605 0.21567-0.5113 0.42298-0.77148 0.61328a0.5 0.5 0 0 0-0.10938 0.69922 0.5 0.5 0 0 0 0.69922 0.10742c0.28874-0.21118 0.56027-0.43392 0.82422-0.65625a0.5 0.5 0 0 0 0.060547-0.70312 0.5 0.5 0 0 0-0.36328-0.17969zm-6.5527 0.74609a0.5 0.5 0 0 0-0.4082 0.23047 0.5 0.5 0 0 0 0.15234 0.68945c0.12568 0.080321 0.25779 0.16047 0.38086 0.23047a0.5 0.5 0 0 0 0.68164-0.1875 0.5 0.5 0 0 0-0.1875-0.68359c-0.11007-0.062602-0.22847-0.13249-0.33594-0.20117a0.5 0.5 0 0 0-0.2832-0.078125zm4.8809 0.44336a0.5 0.5 0 0 0-0.24023 0.0625c-0.27233 0.14914-0.55347 0.2711-0.83789 0.35352a0.5 0.5 0 0 0-0.33984 0.61914 0.5 0.5 0 0 0 0.61914 0.3418c0.36899-0.10692 0.71536-0.26023 1.0391-0.4375a0.5 0.5 0 0 0 0.19726-0.67969 0.5 0.5 0 0 0-0.4375-0.25976zm-2.9609 0.43359a0.5 0.5 0 0 0-0.48047 0.39062 0.5 0.5 0 0 0 0.37891 0.59766c0.35114 0.079065 0.73049 0.14332 1.1367 0.12891a0.5 0.5 0 0 0 0.48242-0.51758 0.5 0.5 0 0 0-0.51758-0.48242c-0.27543 0.009773-0.57119-0.035302-0.88281-0.10547a0.5 0.5 0 0 0-0.11719-0.011719z"/></svg>
