<?xml version="1.0" encoding="UTF-8"?>
<svg width="13" height="19" version="1.1" viewBox="0 0 13 19" xmlns="http://www.w3.org/2000/svg"><path d="m12.5 6.725c0 3.435-6 11.775-6 11.775s-6-8.325-6-11.775c0-3.435 2.685-6.225 6-6.225 3.315 0 6 2.79 6 6.225z" fill="#04beca"/><path d="m4 10.374v-6.0701c0-0.22962 0.06802-0.42092 0.2041-0.57399 0.13604-0.15307 0.3154-0.22963 0.53802-0.22963 0.21644 0 0.39425 0.078127 0.5334 0.23438 0.13913 0.15625 0.20871 0.34602 0.20871 0.56924v1.832c0.17007-0.14349 0.32467-0.24554 0.46383-0.30614 0.20406-0.086108 0.45761-0.12914 0.76067-0.12914 0.64625 0 1.1889 0.26943 1.628 0.80837 0.44219 0.53894 0.66327 1.1974 0.66327 1.9755 0 0.78448-0.22109 1.4461-0.66327 1.9851-0.43909 0.53892-0.98175 0.80843-1.628 0.80843-0.29067 0-0.5334-0.04304-0.72821-0.12912-0.19171-0.08294-0.3726-0.23598-0.54267-0.45922-0.061843 0.13716-0.15151 0.25353-0.26903 0.34922-0.11439 0.09245-0.25664 0.13872-0.42671 0.13872-0.21644 0-0.39425-0.075-0.53341-0.2249-0.13913-0.1499-0.20871-0.34274-0.20871-0.57872zm1.4842-1.8895c0 0.37947 0.089667 0.69358 0.26903 0.94233 0.18241 0.24871 0.43136 0.37312 0.74673 0.37312 0.3154 0 0.56278-0.12598 0.74212-0.37791 0.18245-0.25194 0.27368-0.56444 0.27368-0.93754 0-0.3731-0.085049-0.67606-0.25512-0.90886-0.18863-0.26149-0.44219-0.39224-0.76068-0.39224-0.31536 0-0.56431 0.12438-0.74673 0.37314-0.17936 0.24554-0.26903 0.55486-0.26903 0.92796z" fill="#fff"/></svg>
